<?xml version="1.0" encoding="UTF-8"?>
<!DOCTYPE svg PUBLIC "-//W3C//DTD SVG 1.1//EN" "http://www.w3.org/Graphics/SVG/1.1/DTD/svg11.dtd">
<svg xmlns="http://www.w3.org/2000/svg" version="1.1" width="6000px" height="6000px" style="shape-rendering:geometricPrecision; text-rendering:geometricPrecision; image-rendering:optimizeQuality; fill-rule:evenodd; clip-rule:evenodd" xmlns:xlink="http://www.w3.org/1999/xlink">
<g><path style="opacity:0.091" fill="#081f2c" d="M 2889.5,30.5 C 3324.73,17.2491 3743.06,94.4158 4144.5,262C 4433.5,384.382 4696.17,547.049 4932.5,750C 5238.29,1015.72 5480.29,1328.38 5658.5,1688C 5707.08,1788.44 5751.58,1893.94 5792,2004.5C 5855.26,2184.53 5901.42,2368.86 5930.5,2557.5C 5941.82,2636.99 5950.32,2716.99 5956,2797.5C 5977.91,3124.13 5947.25,3445.79 5864,3762.5C 5795.99,4016.76 5696.99,4257.09 5567,4483.5C 5457.34,4673.04 5328,4849.37 5179,5012.5C 5137.2,5055.97 5095.03,5099.14 5052.5,5142C 5018.13,5174.04 4983.47,5205.7 4948.5,5237C 4664.19,5484.4 4343.19,5672.4 3985.5,5801C 3844.61,5850.14 3700.94,5889.14 3554.5,5918C 3210.76,5982.37 2866.1,5987.7 2520.5,5934C 2083.64,5862.11 1682.98,5702.45 1318.5,5455C 954.767,5205.29 660.267,4891.46 435,4513.5C 241.188,4183.69 114.854,3830.36 56,3453.5C -8.74891,3028.23 16.9178,2608.56 133,2194.5C 224.665,1868.54 367.665,1567.87 562,1292.5C 692.419,1106.34 842.919,936.842 1013.5,784C 1331.46,501.576 1694.8,295.243 2103.5,165C 2269.03,113.827 2437.7,76.8269 2609.5,54C 2702.64,41.9608 2795.97,34.1275 2889.5,30.5 Z"/></g>
<g><path style="opacity:1" fill="#031a27" d="M 4096.5,1134.5 C 3932.5,1134.5 3768.5,1134.5 3604.5,1134.5C 3262.33,1133.67 2920,1133.17 2577.5,1133C 2834.33,1132.83 3091.17,1132.67 3348,1132.5C 3604.83,1132.67 3861.67,1132.83 4118.5,1133C 4110.99,1133.17 4103.66,1133.67 4096.5,1134.5 Z"/></g>
<g><path style="opacity:1" fill="#fefefe" d="M 3604.5,1134.5 C 3768.5,1134.5 3932.5,1134.5 4096.5,1134.5C 4108.25,1134.14 4119.92,1134.14 4131.5,1134.5C 4132.27,1137.1 4132.6,1139.76 4132.5,1142.5C 4102.59,1308.56 4072.09,1474.56 4041,1640.5C 4037.77,1659.83 4034.6,1679.16 4031.5,1698.5C 4030.05,1703.29 4029.05,1708.29 4028.5,1713.5C 4011.33,1810.51 3993.83,1907.51 3976,2004.5C 3962.94,2070 3950.77,2135.66 3939.5,2201.5C 3939.59,2203.26 3939.92,2204.92 3940.5,2206.5C 3874.17,2207.83 3807.83,2207.83 3741.5,2206.5C 3741.83,2203.83 3742.17,2201.17 3742.5,2198.5C 3745.39,2192.15 3747.06,2185.49 3747.5,2178.5C 3748.49,2173.68 3749.15,2168.68 3749.5,2163.5C 3754.78,2135.45 3759.78,2107.45 3764.5,2079.5C 3766.87,2074.91 3767.87,2069.91 3767.5,2064.5C 3767.56,2063.39 3767.89,2062.39 3768.5,2061.5C 3769.27,2060.74 3769.77,2059.74 3770,2058.5C 3770.5,2054.85 3770.67,2051.18 3770.5,2047.5C 3771.78,2039.1 3773.45,2030.76 3775.5,2022.5C 3777.04,2020.16 3777.71,2017.5 3777.5,2014.5C 3777.74,2010.39 3778.41,2006.39 3779.5,2002.5C 3781.25,1996.07 3782.25,1989.41 3782.5,1982.5C 3790.24,1941.61 3797.41,1900.61 3804,1859.5C 3806.02,1849.42 3808.35,1839.42 3811,1829.5C 3814.7,1801.28 3819.7,1773.28 3826,1745.5C 3826.94,1732.57 3829.28,1719.9 3833,1707.5C 3834.33,1691.51 3837.33,1675.85 3842,1660.5C 3845.95,1629.95 3851.28,1599.62 3858,1569.5C 3858.94,1556.57 3861.28,1543.9 3865,1531.5C 3866.8,1514.52 3870.13,1497.86 3875,1481.5C 3875.33,1476.17 3875.67,1470.83 3876,1465.5C 3879.87,1442.34 3884.54,1419.34 3890,1396.5C 3890.53,1383.2 3892.86,1370.2 3897,1357.5C 3897.55,1349.15 3897.88,1340.81 3898,1332.5C 3897.53,1331.07 3896.7,1329.9 3895.5,1329C 3891.64,1328.19 3887.98,1328.36 3884.5,1329.5C 3504.17,1329.5 3123.83,1329.5 2743.5,1329.5C 2741.36,1328.84 2739.03,1328.5 2736.5,1328.5C 2733.73,1328.53 2731.4,1329.2 2729.5,1330.5C 2727.75,1334.18 2727.08,1338.18 2727.5,1342.5C 2724.51,1354.45 2721.85,1366.45 2719.5,1378.5C 2717.91,1384.59 2717.24,1390.93 2717.5,1397.5C 2716.44,1401.18 2715.27,1404.85 2714,1408.5C 2712.46,1428.04 2708.96,1447.04 2703.5,1465.5C 2702.08,1467.51 2701.41,1469.85 2701.5,1472.5C 2701.67,1477.18 2701.5,1481.85 2701,1486.5C 2699.21,1490.64 2697.88,1494.97 2697,1499.5C 2696.73,1506.54 2696.06,1513.54 2695,1520.5C 2692.18,1530.44 2689.68,1540.44 2687.5,1550.5C 2685.9,1554.9 2685.23,1559.57 2685.5,1564.5C 2682.01,1580.7 2679.18,1597.04 2677,1613.5C 2672.35,1625.72 2670.02,1638.39 2670,1651.5C 2661.3,1691.66 2653.63,1731.99 2647,1772.5C 2640.01,1805.69 2633.68,1839.02 2628,1872.5C 2624.33,1882.83 2622.33,1893.5 2622,1904.5C 2620.71,1911.27 2619.05,1917.93 2617,1924.5C 2613.95,1944.94 2610.45,1965.27 2606.5,1985.5C 2604.81,1992.64 2603.47,1999.97 2602.5,2007.5C 2595.63,2037.16 2589.96,2067.16 2585.5,2097.5C 2584.22,2100.59 2583.55,2103.92 2583.5,2107.5C 2565.61,2204.77 2547.11,2302.11 2528,2399.5C 2527.52,2401.13 2526.69,2402.47 2525.5,2403.5C 2523.14,2403.67 2520.81,2404.01 2518.5,2404.5C 2318,2403.33 2117.33,2403.17 1916.5,2404C 1908.5,2404.33 1900.5,2404.67 1892.5,2405C 1863.08,2408.01 1833.74,2411.67 1804.5,2416C 1782.62,2422.13 1760.62,2427.79 1738.5,2433C 1727.41,2437.92 1716.07,2442.25 1704.5,2446C 1696.82,2445.51 1690.16,2447.84 1684.5,2453C 1680.04,2454.83 1675.37,2456.16 1670.5,2457C 1506.39,2530.09 1378.22,2643.93 1286,2798.5C 1280.57,2810.43 1274.57,2822.1 1268,2833.5C 1257.3,2856.24 1246.97,2879.24 1237,2902.5C 1236.55,2905.88 1235.88,2909.21 1235,2912.5C 1227.2,2932.11 1220.53,2952.11 1215,2972.5C 1212.48,2986.05 1209.15,2999.38 1205,3012.5C 1204.36,3023.99 1202.69,3035.32 1200,3046.5C 1198.5,3063.86 1196.83,3081.19 1195,3098.5C 1194.33,3121.17 1194.33,3143.83 1195,3166.5C 1197.14,3193 1200.47,3219.33 1205,3245.5C 1209.02,3256.43 1212.19,3267.6 1214.5,3279C 1238.5,3357.97 1280.83,3425.3 1341.5,3481C 1372.78,3507.59 1406.78,3530.26 1443.5,3549C 1459.99,3555.41 1476.32,3562.08 1492.5,3569C 1505.95,3573.57 1519.62,3577.23 1533.5,3580C 1550,3585.83 1567,3589.17 1584.5,3590C 1587.77,3591.2 1591.11,3592.2 1594.5,3593C 1610.49,3593.86 1626.49,3594.52 1642.5,3595C 2064.5,3595.67 2486.5,3595.67 2908.5,3595C 2920.5,3594.67 2932.5,3594.33 2944.5,3594C 2963.53,3591.75 2982.53,3589.41 3001.5,3587C 3023.14,3581.26 3044.81,3575.92 3066.5,3571C 3076.09,3566.47 3086.09,3563.14 3096.5,3561C 3101.74,3558.13 3107.4,3556.46 3113.5,3556C 3160.16,3536.82 3205.16,3514.82 3248.5,3490C 3264.17,3479.67 3279.83,3469.33 3295.5,3459C 3307.88,3448.95 3320.55,3439.28 3333.5,3430C 3344.54,3419.96 3355.87,3410.29 3367.5,3401C 3387.33,3381.17 3407.17,3361.33 3427,3341.5C 3434.05,3331.42 3442.05,3322.09 3451,3313.5C 3465.85,3292.48 3481.18,3271.81 3497,3251.5C 3501,3244.17 3505,3236.83 3509,3229.5C 3514.06,3222.77 3518.73,3215.77 3523,3208.5C 3534.18,3188.82 3544.84,3168.82 3555,3148.5C 3559.54,3134.88 3564.88,3121.54 3571,3108.5C 3583.93,3074.53 3594.59,3039.86 3603,3004.5C 3607.21,2981.66 3612.04,2958.99 3617.5,2936.5C 3619.46,2928.73 3620.8,2920.73 3621.5,2912.5C 3623.67,2897.36 3626,2882.36 3628.5,2867.5C 3629.81,2862.38 3630.47,2857.05 3630.5,2851.5C 3632.07,2847.41 3633.07,2843.08 3633.5,2838.5C 3635.26,2833.45 3635.93,2828.11 3635.5,2822.5C 3636.45,2821.08 3636.78,2819.41 3636.5,2817.5C 3701.83,2817.5 3767.17,2817.5 3832.5,2817.5C 3833.17,2817.5 3833.83,2817.5 3834.5,2817.5C 3834.32,2826.73 3832.82,2835.73 3830,2844.5C 3823.65,2887.97 3816.48,2931.31 3808.5,2974.5C 3807.08,2976.51 3806.41,2978.85 3806.5,2981.5C 3803.38,2992.31 3801.05,3003.31 3799.5,3014.5C 3798.58,3018.99 3797.91,3023.66 3797.5,3028.5C 3795.93,3030.1 3795.26,3032.1 3795.5,3034.5C 3793.97,3039.25 3793.3,3044.25 3793.5,3049.5C 3790.89,3055.57 3788.72,3061.9 3787,3068.5C 3782.93,3082.72 3779.26,3097.05 3776,3111.5C 3772.22,3118.73 3769.89,3126.39 3769,3134.5C 3764.61,3147.08 3759.78,3159.42 3754.5,3171.5C 3743.34,3202.17 3730.18,3232.17 3715,3261.5C 3704.86,3281.12 3694.19,3300.46 3683,3319.5C 3680.67,3322.5 3678.33,3325.5 3676,3328.5C 3667.71,3343.27 3658.87,3357.6 3649.5,3371.5C 3647.87,3372.63 3646.37,3373.96 3645,3375.5C 3629.24,3399.6 3611.58,3422.26 3592,3443.5C 3588.67,3448.17 3585.33,3452.83 3582,3457.5C 3488.44,3563.29 3378.27,3646.62 3251.5,3707.5C 3245.58,3708.62 3240.25,3711.12 3235.5,3715C 3222.77,3719.36 3210.43,3724.69 3198.5,3731C 3195.53,3731.79 3192.53,3732.46 3189.5,3733C 3183.49,3737.12 3176.82,3739.45 3169.5,3740C 3163.62,3741.94 3157.95,3744.44 3152.5,3747.5C 3141.67,3750.83 3130.67,3753.66 3119.5,3756C 3109.35,3760.83 3098.69,3763.83 3087.5,3765C 3076.94,3769.18 3065.94,3771.51 3054.5,3772C 3049,3773.92 3043.66,3776.09 3038.5,3778.5C 2993.15,3783.2 2947.82,3787.86 2902.5,3792.5C 2827.83,3792.5 2753.17,3792.5 2678.5,3792.5C 2677.74,3791.73 2676.74,3791.23 2675.5,3791C 2612.17,3790.33 2548.83,3790.33 2485.5,3791C 2483.41,3791.32 2481.41,3791.82 2479.5,3792.5C 2407.76,3792.17 2336.1,3792.5 2264.5,3793.5C 2198.57,3792.5 2132.57,3792.17 2066.5,3792.5C 2059.5,3791.17 2052.5,3791.17 2045.5,3792.5C 1906.5,3792.32 1767.5,3791.82 1628.5,3791C 1604.05,3786.57 1579.38,3784.24 1554.5,3784C 1544.28,3781.83 1533.95,3780.16 1523.5,3779C 1509.79,3774.41 1495.79,3771.07 1481.5,3769C 1473.48,3765.58 1465.14,3763.24 1456.5,3762C 1346.36,3727.85 1251.19,3669.35 1171,3586.5C 1150.2,3561.71 1130.2,3536.38 1111,3510.5C 1082.97,3466.76 1059.31,3420.76 1040,3372.5C 1030.25,3343.17 1021.58,3313.5 1014,3283.5C 1012.22,3268.92 1009.55,3254.59 1006,3240.5C 1003.34,3214.19 1001,3187.86 999,3161.5C 997.908,3129.77 998.741,3098.11 1001.5,3066.5C 1002.81,3060.04 1003.48,3053.37 1003.5,3046.5C 1006.15,3022.18 1009.65,2997.85 1014,2973.5C 1019.99,2950.91 1025.66,2928.24 1031,2905.5C 1035.03,2893.39 1039.36,2881.39 1044,2869.5C 1044.19,2864.65 1045.19,2859.99 1047,2855.5C 1055.28,2835.95 1063.28,2816.28 1071,2796.5C 1079.98,2780.87 1087.64,2764.54 1094,2747.5C 1132.54,2674.4 1178.54,2606.4 1232,2543.5C 1270.62,2502.21 1311.12,2463.04 1353.5,2426C 1388.67,2399.17 1424.67,2373.5 1461.5,2349C 1514.79,2317.7 1569.79,2290.04 1626.5,2266C 1635,2264.94 1643,2262.28 1650.5,2258C 1675.23,2250.54 1699.89,2242.87 1724.5,2235C 1738.4,2232.7 1752.07,2229.37 1765.5,2225C 1775.42,2224.58 1785.09,2222.91 1794.5,2220C 1804.54,2219.37 1814.54,2218.37 1824.5,2217C 1845.52,2212.21 1866.86,2209.55 1888.5,2209C 2047.58,2209 2206.58,2208.33 2365.5,2207C 2366.89,2205.83 2367.73,2204.33 2368,2202.5C 2368.52,2197.15 2369.19,2191.81 2370,2186.5C 2374.8,2168.99 2378.8,2151.32 2382,2133.5C 2382.89,2115.38 2386.22,2097.71 2392,2080.5C 2396.55,2050.62 2402.22,2020.95 2409,1991.5C 2412.12,1972.21 2415.12,1952.88 2418,1933.5C 2423.06,1913.97 2427.39,1894.3 2431,1874.5C 2432.15,1856.43 2435.48,1838.76 2441,1821.5C 2441.17,1815.8 2441.67,1810.14 2442.5,1804.5C 2445.25,1791.56 2447.58,1778.56 2449.5,1765.5C 2451.16,1763.56 2451.83,1761.23 2451.5,1758.5C 2458.96,1718.42 2466.62,1678.42 2474.5,1638.5C 2475.52,1635.03 2476.19,1631.36 2476.5,1627.5C 2476.86,1624.31 2477.53,1621.31 2478.5,1618.5C 2479.97,1614.08 2480.64,1609.41 2480.5,1604.5C 2507.99,1459.54 2535.32,1314.54 2562.5,1169.5C 2564.04,1167.16 2564.71,1164.5 2564.5,1161.5C 2565.63,1155.87 2566.63,1150.2 2567.5,1144.5C 2568.91,1141.78 2569.58,1138.78 2569.5,1135.5C 2570.31,1134.01 2571.65,1133.34 2573.5,1133.5C 2917.15,1134.5 3260.82,1134.83 3604.5,1134.5 Z"/></g>
<g><path style="opacity:1" fill="#838f95" d="M 4131.5,1134.5 C 4133.03,1135.49 4133.69,1136.99 4133.5,1139C 4133.49,1140.38 4133.15,1141.55 4132.5,1142.5C 4132.6,1139.76 4132.27,1137.1 4131.5,1134.5 Z"/></g>
<g><path style="opacity:1" fill="#859198" d="M 2569.5,1135.5 C 2569.58,1138.78 2568.91,1141.78 2567.5,1144.5C 2567.42,1141.22 2568.09,1138.22 2569.5,1135.5 Z"/></g>
<g><path style="opacity:1" fill="#68767e" d="M 2564.5,1161.5 C 2564.71,1164.5 2564.04,1167.16 2562.5,1169.5C 2562.57,1166.57 2563.23,1163.91 2564.5,1161.5 Z"/></g>
<g><path style="opacity:1" fill="#8f9ca0" d="M 2743.5,1329.5 C 2738.74,1329.23 2734.07,1329.56 2729.5,1330.5C 2731.4,1329.2 2733.73,1328.53 2736.5,1328.5C 2739.03,1328.5 2741.36,1328.84 2743.5,1329.5 Z"/></g>
<g><path style="opacity:1" fill="#253a45" d="M 2743.5,1329.5 C 3123.83,1329.5 3504.17,1329.5 3884.5,1329.5C 3500.33,1330.33 3116,1330.83 2731.5,1331C 2730.57,1331.39 2729.91,1332.05 2729.5,1333C 2728.95,1336.32 2728.28,1339.49 2727.5,1342.5C 2727.08,1338.18 2727.75,1334.18 2729.5,1330.5C 2734.07,1329.56 2738.74,1329.23 2743.5,1329.5 Z"/></g>
<g><path style="opacity:1" fill="#081f2c" d="M 3782.5,1982.5 C 3780.44,1988.88 3779.44,1995.55 3779.5,2002.5C 3778.41,2006.39 3777.74,2010.39 3777.5,2014.5C 3776.23,2016.91 3775.57,2019.57 3775.5,2022.5C 3773.45,2030.76 3771.78,2039.1 3770.5,2047.5C 3769.36,2051.96 3768.69,2056.63 3768.5,2061.5C 3767.89,2062.39 3767.56,2063.39 3767.5,2064.5C 3765.98,2069.27 3764.98,2074.27 3764.5,2079.5C 3759.78,2107.45 3754.78,2135.45 3749.5,2163.5C 3747.76,2168.22 3747.1,2173.22 3747.5,2178.5C 3747.06,2185.49 3745.39,2192.15 3742.5,2198.5C 3741.01,2200.9 3740.01,2203.57 3739.5,2206.5C 3737.69,2206.49 3736.02,2206.99 3734.5,2208C 3673.5,2208.67 3612.5,2208.67 3551.5,2208C 3544.12,2207.76 3536.79,2207.26 3529.5,2206.5C 3528.66,2204.62 3528.33,2202.62 3528.5,2200.5C 3530.13,2193.41 3530.96,2186.08 3531,2178.5C 3533.84,2168.96 3536.17,2159.3 3538,2149.5C 3565.79,1996.11 3593.63,1842.78 3621.5,1689.5C 3622.62,1687.24 3623.95,1685.07 3625.5,1683C 3624.58,1680.96 3624.24,1678.79 3624.5,1676.5C 3628.48,1651.93 3632.82,1627.59 3637.5,1603.5C 3638.9,1600.49 3640.24,1597.33 3641.5,1594C 3641.17,1590.32 3641.17,1586.49 3641.5,1582.5C 3641.86,1576.92 3642.86,1571.58 3644.5,1566.5C 3646.4,1561.77 3646.9,1556.77 3646,1551.5C 3645.5,1551 3645,1550.5 3644.5,1550C 3397.33,1549.17 3150.33,1549.33 2903.5,1550.5C 2901.93,1552.1 2901.26,1554.1 2901.5,1556.5C 2897.75,1573.42 2894.42,1590.42 2891.5,1607.5C 2890.51,1612.05 2889.51,1616.72 2888.5,1621.5C 2869.86,1712.72 2851.86,1804.05 2834.5,1895.5C 2833.08,1897.51 2832.41,1899.85 2832.5,1902.5C 2807.35,2031.49 2781.85,2160.49 2756,2289.5C 2754.64,2292.33 2753.14,2295 2751.5,2297.5C 2749.73,2298.76 2748.06,2300.26 2746.5,2302C 2669.52,2339.3 2599.18,2386.63 2535.5,2444C 2491.22,2479.28 2452.05,2519.45 2418,2564.5C 2401.07,2582.39 2386.07,2601.72 2373,2622.5C 2371.3,2623.41 2369.47,2623.74 2367.5,2623.5C 2365.19,2623.09 2362.86,2622.75 2360.5,2622.5C 2180.68,2623.16 2001.01,2623.83 1821.5,2624.5C 1815.94,2624.15 1810.61,2624.82 1805.5,2626.5C 1802.57,2626.57 1799.91,2627.23 1797.5,2628.5C 1779.32,2630.79 1761.32,2633.95 1743.5,2638C 1633.68,2672.13 1547.52,2737.3 1485,2833.5C 1476.73,2848.76 1468.07,2863.76 1459,2878.5C 1455.51,2890.31 1450.84,2901.64 1445,2912.5C 1438.62,2932.03 1432.62,2951.7 1427,2971.5C 1426.65,2985.1 1424.65,2998.43 1421,3011.5C 1420.33,3037.17 1420.33,3062.83 1421,3088.5C 1434.86,3199.48 1490.03,3282.64 1586.5,3338C 1598.05,3343.61 1609.71,3348.94 1621.5,3354C 1631.46,3356.48 1641.13,3359.81 1650.5,3364C 1661.95,3365.7 1673.29,3367.86 1684.5,3370.5C 1692.31,3371.72 1700.31,3372.38 1708.5,3372.5C 1714.69,3372.18 1720.69,3372.51 1726.5,3373.5C 1727.92,3374.45 1729.59,3374.78 1731.5,3374.5C 1737.65,3375.33 1743.99,3375.83 1750.5,3376C 1953.33,3376.17 2156.17,3376.33 2359,3376.5C 2562,3376.5 2764.83,3376.17 2967.5,3375.5C 2970.5,3374.83 2973.5,3374.17 2976.5,3373.5C 2988.99,3372.34 3001.66,3371.51 3014.5,3371C 3021.69,3370.24 3028.69,3368.74 3035.5,3366.5C 3040.1,3366.2 3044.6,3366.53 3049,3367.5C 3049.98,3366.19 3051.15,3365.19 3052.5,3364.5C 3069.04,3358.7 3085.71,3353.2 3102.5,3348C 3113.42,3342.03 3124.75,3337.03 3136.5,3333C 3163.61,3317.61 3189.95,3300.94 3215.5,3283C 3243.67,3258.83 3269.83,3232.67 3294,3204.5C 3315.09,3176.68 3333.42,3147.01 3349,3115.5C 3353.38,3104.37 3357.38,3093.03 3361,3081.5C 3362.12,3078.76 3363.62,3076.26 3365.5,3074C 3366.61,3065.86 3368.61,3058.03 3371.5,3050.5C 3374.35,3044.93 3376.02,3038.93 3376.5,3032.5C 3377.34,3028.68 3378.34,3025.01 3379.5,3021.5C 3380.3,3020.05 3380.8,3018.38 3381,3016.5C 3381.65,3017.7 3382.15,3017.7 3382.5,3016.5C 3381.63,3014.25 3381.29,3011.92 3381.5,3009.5C 3385.68,2986.71 3390.35,2964.05 3395.5,2941.5C 3397.62,2934.66 3399.62,2927.66 3401.5,2920.5C 3400.95,2918.87 3400.62,2917.2 3400.5,2915.5C 3401.58,2909.17 3402.58,2902.84 3403.5,2896.5C 3404.22,2896.08 3404.72,2895.42 3405,2894.5C 3405.76,2888.85 3406.26,2883.18 3406.5,2877.5C 3409.17,2857.48 3411.84,2837.48 3414.5,2817.5C 3486.82,2816.82 3559.15,2816.16 3631.5,2815.5C 3634.99,2816.39 3636.32,2818.72 3635.5,2822.5C 3634.54,2827.66 3633.87,2832.99 3633.5,2838.5C 3633.07,2843.08 3632.07,2847.41 3630.5,2851.5C 3628.92,2856.58 3628.25,2861.92 3628.5,2867.5C 3626,2882.36 3623.67,2897.36 3621.5,2912.5C 3620.88,2912.61 3620.38,2912.94 3620,2913.5C 3619.06,2916.81 3618.23,2920.15 3617.5,2923.5C 3617.94,2927.76 3617.94,2932.09 3617.5,2936.5C 3612.04,2958.99 3607.21,2981.66 3603,3004.5C 3594.59,3039.86 3583.93,3074.53 3571,3108.5C 3564.88,3121.54 3559.54,3134.88 3555,3148.5C 3544.84,3168.82 3534.18,3188.82 3523,3208.5C 3518.73,3215.77 3514.06,3222.77 3509,3229.5C 3505,3236.83 3501,3244.17 3497,3251.5C 3481.18,3271.81 3465.85,3292.48 3451,3313.5C 3442.05,3322.09 3434.05,3331.42 3427,3341.5C 3407.17,3361.33 3387.33,3381.17 3367.5,3401C 3355.87,3410.29 3344.54,3419.96 3333.5,3430C 3320.55,3439.28 3307.88,3448.95 3295.5,3459C 3279.83,3469.33 3264.17,3479.67 3248.5,3490C 3205.16,3514.82 3160.16,3536.82 3113.5,3556C 3107.4,3556.46 3101.74,3558.13 3096.5,3561C 3086.09,3563.14 3076.09,3566.47 3066.5,3571C 3044.81,3575.92 3023.14,3581.26 3001.5,3587C 2982.53,3589.41 2963.53,3591.75 2944.5,3594C 2932.5,3594.33 2920.5,3594.67 2908.5,3595C 2486.5,3595.67 2064.5,3595.67 1642.5,3595C 1626.49,3594.52 1610.49,3593.86 1594.5,3593C 1591.11,3592.2 1587.77,3591.2 1584.5,3590C 1567,3589.17 1550,3585.83 1533.5,3580C 1519.62,3577.23 1505.95,3573.57 1492.5,3569C 1476.32,3562.08 1459.99,3555.41 1443.5,3549C 1406.78,3530.26 1372.78,3507.59 1341.5,3481C 1280.83,3425.3 1238.5,3357.97 1214.5,3279C 1212.19,3267.6 1209.02,3256.43 1205,3245.5C 1200.47,3219.33 1197.14,3193 1195,3166.5C 1194.33,3143.83 1194.33,3121.17 1195,3098.5C 1196.83,3081.19 1198.5,3063.86 1200,3046.5C 1202.69,3035.32 1204.36,3023.99 1205,3012.5C 1209.15,2999.38 1212.48,2986.05 1215,2972.5C 1220.53,2952.11 1227.2,2932.11 1235,2912.5C 1235.88,2909.21 1236.55,2905.88 1237,2902.5C 1246.97,2879.24 1257.3,2856.24 1268,2833.5C 1274.57,2822.1 1280.57,2810.43 1286,2798.5C 1378.22,2643.93 1506.39,2530.09 1670.5,2457C 1675.37,2456.16 1680.04,2454.83 1684.5,2453C 1690.16,2447.84 1696.82,2445.51 1704.5,2446C 1716.07,2442.25 1727.41,2437.92 1738.5,2433C 1760.62,2427.79 1782.62,2422.13 1804.5,2416C 1833.74,2411.67 1863.08,2408.01 1892.5,2405C 1900.5,2404.67 1908.5,2404.33 1916.5,2404C 2117.33,2403.17 2318,2403.33 2518.5,2404.5C 2520.95,2405.65 2523.29,2405.31 2525.5,2403.5C 2526.69,2402.47 2527.52,2401.13 2528,2399.5C 2547.11,2302.11 2565.61,2204.77 2583.5,2107.5C 2584.45,2106.55 2585.45,2105.55 2586.5,2104.5C 2585.63,2102.25 2585.29,2099.92 2585.5,2097.5C 2589.96,2067.16 2595.63,2037.16 2602.5,2007.5C 2604.33,2005.18 2605.66,2002.51 2606.5,1999.5C 2606.11,1994.91 2606.11,1990.25 2606.5,1985.5C 2610.45,1965.27 2613.95,1944.94 2617,1924.5C 2619.05,1917.93 2620.71,1911.27 2622,1904.5C 2622.33,1893.5 2624.33,1882.83 2628,1872.5C 2633.68,1839.02 2640.01,1805.69 2647,1772.5C 2653.63,1731.99 2661.3,1691.66 2670,1651.5C 2670.02,1638.39 2672.35,1625.72 2677,1613.5C 2679.18,1597.04 2682.01,1580.7 2685.5,1564.5C 2686.64,1560.04 2687.31,1555.37 2687.5,1550.5C 2689.68,1540.44 2692.18,1530.44 2695,1520.5C 2696.06,1513.54 2696.73,1506.54 2697,1499.5C 2697.88,1494.97 2699.21,1490.64 2701,1486.5C 2701.5,1481.85 2701.67,1477.18 2701.5,1472.5C 2702.92,1470.49 2703.59,1468.15 2703.5,1465.5C 2708.96,1447.04 2712.46,1428.04 2714,1408.5C 2715.27,1404.85 2716.44,1401.18 2717.5,1397.5C 2718.75,1391.37 2719.41,1385.04 2719.5,1378.5C 2721.85,1366.45 2724.51,1354.45 2727.5,1342.5C 2728.28,1339.49 2728.95,1336.32 2729.5,1333C 2729.91,1332.05 2730.57,1331.39 2731.5,1331C 3116,1330.83 3500.33,1330.33 3884.5,1329.5C 3887.98,1328.36 3891.64,1328.19 3895.5,1329C 3896.7,1329.9 3897.53,1331.07 3898,1332.5C 3897.88,1340.81 3897.55,1349.15 3897,1357.5C 3892.86,1370.2 3890.53,1383.2 3890,1396.5C 3884.54,1419.34 3879.87,1442.34 3876,1465.5C 3875.67,1470.83 3875.33,1476.17 3875,1481.5C 3870.13,1497.86 3866.8,1514.52 3865,1531.5C 3861.28,1543.9 3858.94,1556.57 3858,1569.5C 3851.28,1599.62 3845.95,1629.95 3842,1660.5C 3837.33,1675.85 3834.33,1691.51 3833,1707.5C 3829.28,1719.9 3826.94,1732.57 3826,1745.5C 3819.7,1773.28 3814.7,1801.28 3811,1829.5C 3808.35,1839.42 3806.02,1849.42 3804,1859.5C 3797.41,1900.61 3790.24,1941.61 3782.5,1982.5 Z"/></g>
<g><path style="opacity:1" fill="#838f96" d="M 2719.5,1378.5 C 2719.41,1385.04 2718.75,1391.37 2717.5,1397.5C 2717.24,1390.93 2717.91,1384.59 2719.5,1378.5 Z"/></g>
<g><path style="opacity:1" fill="#7f8c92" d="M 2703.5,1465.5 C 2703.59,1468.15 2702.92,1470.49 2701.5,1472.5C 2701.41,1469.85 2702.08,1467.51 2703.5,1465.5 Z"/></g>
<g><path style="opacity:1" fill="#53636c" d="M 2903.5,1550.5 C 3150.33,1549.33 3397.33,1549.17 3644.5,1550C 3645,1550.5 3645.5,1551 3646,1551.5C 3646.9,1556.77 3646.4,1561.77 3644.5,1566.5C 3644.7,1563.49 3645.03,1560.49 3645.5,1557.5C 3645.64,1555.12 3644.97,1553.12 3643.5,1551.5C 3397,1550.5 3150.33,1550.17 2903.5,1550.5 Z"/></g>
<g><path style="opacity:1" fill="#e2e5e6" d="M 2903.5,1550.5 C 3150.33,1550.17 3397,1550.5 3643.5,1551.5C 3396.83,1551.5 3150.17,1551.5 2903.5,1551.5C 2903.6,1553.55 2902.93,1555.22 2901.5,1556.5C 2901.26,1554.1 2901.93,1552.1 2903.5,1550.5 Z"/></g>
<g><path style="opacity:1" fill="#fefefe" d="M 3643.5,1551.5 C 3644.97,1553.12 3645.64,1555.12 3645.5,1557.5C 3645.03,1560.49 3644.7,1563.49 3644.5,1566.5C 3642.86,1571.58 3641.86,1576.92 3641.5,1582.5C 3639.73,1589.29 3638.39,1596.29 3637.5,1603.5C 3632.82,1627.59 3628.48,1651.93 3624.5,1676.5C 3623.34,1680.68 3622.34,1685.01 3621.5,1689.5C 3593.63,1842.78 3565.79,1996.11 3538,2149.5C 3536.17,2159.3 3533.84,2168.96 3531,2178.5C 3530.96,2186.08 3530.13,2193.41 3528.5,2200.5C 3527.26,2202.21 3526.59,2204.21 3526.5,2206.5C 3461.5,2207.83 3396.5,2207.83 3331.5,2206.5C 3331.5,2204.17 3331.5,2201.83 3331.5,2199.5C 3341.91,2146.33 3351.57,2092.99 3360.5,2039.5C 3362.04,2037.16 3362.71,2034.5 3362.5,2031.5C 3364.97,2024.09 3366.13,2016.42 3366,2008.5C 3367.81,2002.61 3368.97,1996.61 3369.5,1990.5C 3371.76,1985.53 3372.76,1980.19 3372.5,1974.5C 3373.76,1963.88 3375.76,1953.55 3378.5,1943.5C 3380.22,1940.16 3380.88,1936.49 3380.5,1932.5C 3382.5,1926.79 3383.5,1920.79 3383.5,1914.5C 3383.42,1911.22 3384.09,1908.22 3385.5,1905.5C 3387.71,1897.78 3389.04,1889.78 3389.5,1881.5C 3390.76,1874.53 3391.93,1867.53 3393,1860.5C 3393.72,1856.57 3394.89,1852.91 3396.5,1849.5C 3398.13,1842.39 3399.13,1835.05 3399.5,1827.5C 3403.34,1804.14 3407.51,1780.8 3412,1757.5C 3412.67,1753.83 3412.67,1750.17 3412,1746.5C 3411.5,1746 3411,1745.5 3410.5,1745C 3294.48,1745.5 3178.48,1745.67 3062.5,1745.5C 3059.36,1756.07 3056.52,1766.74 3054,1777.5C 3038.81,1857.96 3022.98,1938.3 3006.5,2018.5C 3005.58,2022.99 3004.91,2027.66 3004.5,2032.5C 3003.5,2037.17 3002.5,2041.84 3001.5,2046.5C 3000.08,2048.51 2999.41,2050.85 2999.5,2053.5C 2998.53,2055.95 2998.19,2058.61 2998.5,2061.5C 2997.19,2068.38 2995.86,2075.38 2994.5,2082.5C 2993.23,2084.91 2992.57,2087.57 2992.5,2090.5C 2991.08,2092.51 2990.41,2094.85 2990.5,2097.5C 2989.85,2099.44 2989.52,2101.44 2989.5,2103.5C 2988.41,2108.31 2987.74,2113.31 2987.5,2118.5C 2986.76,2122.22 2985.59,2125.89 2984,2129.5C 2983.63,2135.2 2982.97,2140.87 2982,2146.5C 2976.81,2166.66 2972.64,2186.99 2969.5,2207.5C 2967.12,2212.11 2966.12,2217.11 2966.5,2222.5C 2942.4,2229.82 2918.06,2236.32 2893.5,2242C 2879.02,2247.6 2864.35,2252.6 2849.5,2257C 2835.66,2262.73 2821.66,2268.06 2807.5,2273C 2795.7,2278.71 2783.7,2284.05 2771.5,2289C 2765.64,2293.77 2758.97,2296.6 2751.5,2297.5C 2753.14,2295 2754.64,2292.33 2756,2289.5C 2781.85,2160.49 2807.35,2031.49 2832.5,1902.5C 2833.92,1900.49 2834.59,1898.15 2834.5,1895.5C 2851.86,1804.05 2869.86,1712.72 2888.5,1621.5C 2890.96,1617.26 2891.96,1612.6 2891.5,1607.5C 2894.42,1590.42 2897.75,1573.42 2901.5,1556.5C 2902.93,1555.22 2903.6,1553.55 2903.5,1551.5C 3150.17,1551.5 3396.83,1551.5 3643.5,1551.5 Z"/></g>
<g><path style="opacity:1" fill="#b8bfc3" d="M 2687.5,1550.5 C 2687.31,1555.37 2686.64,1560.04 2685.5,1564.5C 2685.23,1559.57 2685.9,1554.9 2687.5,1550.5 Z"/></g>
<g><path style="opacity:1" fill="#2f414c" d="M 3641.5,1582.5 C 3641.17,1586.49 3641.17,1590.32 3641.5,1594C 3640.24,1597.33 3638.9,1600.49 3637.5,1603.5C 3638.39,1596.29 3639.73,1589.29 3641.5,1582.5 Z"/></g>
<g><path style="opacity:1" fill="#b5bcc0" d="M 2891.5,1607.5 C 2891.96,1612.6 2890.96,1617.26 2888.5,1621.5C 2889.51,1616.72 2890.51,1612.05 2891.5,1607.5 Z"/></g>
<g><path style="opacity:1" fill="#b8bec2" d="M 2480.5,1604.5 C 2480.64,1609.41 2479.97,1614.08 2478.5,1618.5C 2478.23,1613.57 2478.9,1608.9 2480.5,1604.5 Z"/></g>
<g><path style="opacity:1" fill="#9ca5aa" d="M 2476.5,1627.5 C 2476.19,1631.36 2475.52,1635.03 2474.5,1638.5C 2474.12,1634.51 2474.78,1630.84 2476.5,1627.5 Z"/></g>
<g><path style="opacity:1" fill="#475660" d="M 3624.5,1676.5 C 3624.24,1678.79 3624.58,1680.96 3625.5,1683C 3623.95,1685.07 3622.62,1687.24 3621.5,1689.5C 3622.34,1685.01 3623.34,1680.68 3624.5,1676.5 Z"/></g>
<g><path style="opacity:1" fill="#41515c" d="M 4031.5,1698.5 C 4031.1,1702.77 4031.1,1706.94 4031.5,1711C 4030.31,1711.7 4029.31,1712.53 4028.5,1713.5C 4029.05,1708.29 4030.05,1703.29 4031.5,1698.5 Z"/></g>
<g><path style="opacity:1" fill="#081f2c" d="M 3399.5,1827.5 C 3397.44,1834.56 3396.44,1841.89 3396.5,1849.5C 3394.89,1852.91 3393.72,1856.57 3393,1860.5C 3391.93,1867.53 3390.76,1874.53 3389.5,1881.5C 3387.53,1889.26 3386.2,1897.26 3385.5,1905.5C 3384.09,1908.22 3383.42,1911.22 3383.5,1914.5C 3381.66,1920.23 3380.66,1926.23 3380.5,1932.5C 3379.48,1935.97 3378.81,1939.64 3378.5,1943.5C 3375.76,1953.55 3373.76,1963.88 3372.5,1974.5C 3370.96,1979.61 3369.96,1984.94 3369.5,1990.5C 3368.97,1996.61 3367.81,2002.61 3366,2008.5C 3366.13,2016.42 3364.97,2024.09 3362.5,2031.5C 3361.23,2033.91 3360.57,2036.57 3360.5,2039.5C 3351.57,2092.99 3341.91,2146.33 3331.5,2199.5C 3330.73,2201.71 3330.07,2204.05 3329.5,2206.5C 3328.83,2206.83 3328.17,2207.17 3327.5,2207.5C 3263.83,2207.33 3200.17,2207.5 3136.5,2208C 3127.32,2208.17 3118.32,2208.67 3109.5,2209.5C 3097.05,2210.8 3084.72,2211.8 3072.5,2212.5C 3059.1,2212.84 3045.76,2213.84 3032.5,2215.5C 3026.9,2215.16 3021.57,2215.82 3016.5,2217.5C 3001.15,2218.05 2985.98,2220.05 2971,2223.5C 2969.62,2223.49 2968.45,2223.15 2967.5,2222.5C 2968.06,2217.48 2968.72,2212.48 2969.5,2207.5C 2972.64,2186.99 2976.81,2166.66 2982,2146.5C 2982.97,2140.87 2983.63,2135.2 2984,2129.5C 2985.59,2125.89 2986.76,2122.22 2987.5,2118.5C 2989.14,2113.77 2989.81,2108.77 2989.5,2103.5C 2989.52,2101.44 2989.85,2099.44 2990.5,2097.5C 2991.92,2095.49 2992.59,2093.15 2992.5,2090.5C 2992.57,2087.57 2993.23,2084.91 2994.5,2082.5C 2995.22,2082.08 2995.72,2081.42 2996,2080.5C 2996.33,2080.83 2996.67,2081.17 2997,2081.5C 2997.25,2079.57 2997.75,2077.73 2998.5,2076C 2998.07,2071.27 2998.07,2066.43 2998.5,2061.5C 2998.19,2058.61 2998.53,2055.95 2999.5,2053.5C 3000.92,2051.49 3001.59,2049.15 3001.5,2046.5C 3002.5,2041.84 3003.5,2037.17 3004.5,2032.5C 3005.27,2031.74 3005.77,2030.74 3006,2029.5C 3006.5,2025.85 3006.67,2022.18 3006.5,2018.5C 3022.98,1938.3 3038.81,1857.96 3054,1777.5C 3056.52,1766.74 3059.36,1756.07 3062.5,1745.5C 3178.48,1745.67 3294.48,1745.5 3410.5,1745C 3411,1745.5 3411.5,1746 3412,1746.5C 3412.67,1750.17 3412.67,1753.83 3412,1757.5C 3407.51,1780.8 3403.34,1804.14 3399.5,1827.5 Z"/></g>
<g><path style="opacity:1" fill="#738188" d="M 2451.5,1758.5 C 2451.83,1761.23 2451.16,1763.56 2449.5,1765.5C 2449.41,1762.85 2450.08,1760.51 2451.5,1758.5 Z"/></g>
<g><path style="opacity:1" fill="#b3babe" d="M 3399.5,1827.5 C 3399.13,1835.05 3398.13,1842.39 3396.5,1849.5C 3396.44,1841.89 3397.44,1834.56 3399.5,1827.5 Z"/></g>
<g><path style="opacity:1" fill="#a4acb1" d="M 3389.5,1881.5 C 3389.04,1889.78 3387.71,1897.78 3385.5,1905.5C 3386.2,1897.26 3387.53,1889.26 3389.5,1881.5 Z"/></g>
<g><path style="opacity:1" fill="#66747c" d="M 2834.5,1895.5 C 2834.59,1898.15 2833.92,1900.49 2832.5,1902.5C 2832.41,1899.85 2833.08,1897.51 2834.5,1895.5 Z"/></g>
<g><path style="opacity:1" fill="#a4adb2" d="M 3383.5,1914.5 C 3383.5,1920.79 3382.5,1926.79 3380.5,1932.5C 3380.66,1926.23 3381.66,1920.23 3383.5,1914.5 Z"/></g>
<g><path style="opacity:1" fill="#9aa4a9" d="M 3380.5,1932.5 C 3380.88,1936.49 3380.22,1940.16 3378.5,1943.5C 3378.81,1939.64 3379.48,1935.97 3380.5,1932.5 Z"/></g>
<g><path style="opacity:1" fill="#8e989e" d="M 3372.5,1974.5 C 3372.76,1980.19 3371.76,1985.53 3369.5,1990.5C 3369.96,1984.94 3370.96,1979.61 3372.5,1974.5 Z"/></g>
<g><path style="opacity:1" fill="#adb5b9" d="M 3782.5,1982.5 C 3782.25,1989.41 3781.25,1996.07 3779.5,2002.5C 3779.44,1995.55 3780.44,1988.88 3782.5,1982.5 Z"/></g>
<g><path style="opacity:1" fill="#334450" d="M 2606.5,1985.5 C 2606.11,1990.25 2606.11,1994.91 2606.5,1999.5C 2605.66,2002.51 2604.33,2005.18 2602.5,2007.5C 2603.47,1999.97 2604.81,1992.64 2606.5,1985.5 Z"/></g>
<g><path style="opacity:1" fill="#889399" d="M 3777.5,2014.5 C 3777.71,2017.5 3777.04,2020.16 3775.5,2022.5C 3775.57,2019.57 3776.23,2016.91 3777.5,2014.5 Z"/></g>
<g><path style="opacity:1" fill="#4d5d67" d="M 3006.5,2018.5 C 3006.67,2022.18 3006.5,2025.85 3006,2029.5C 3005.77,2030.74 3005.27,2031.74 3004.5,2032.5C 3004.91,2027.66 3005.58,2022.99 3006.5,2018.5 Z"/></g>
<g><path style="opacity:1" fill="#738087" d="M 3362.5,2031.5 C 3362.71,2034.5 3362.04,2037.16 3360.5,2039.5C 3360.57,2036.57 3361.23,2033.91 3362.5,2031.5 Z"/></g>
<g><path style="opacity:1" fill="#5b6a72" d="M 3001.5,2046.5 C 3001.59,2049.15 3000.92,2051.49 2999.5,2053.5C 2999.41,2050.85 3000.08,2048.51 3001.5,2046.5 Z"/></g>
<g><path style="opacity:1" fill="#a4acb1" d="M 3770.5,2047.5 C 3770.67,2051.18 3770.5,2054.85 3770,2058.5C 3769.77,2059.74 3769.27,2060.74 3768.5,2061.5C 3768.69,2056.63 3769.36,2051.96 3770.5,2047.5 Z"/></g>
<g><path style="opacity:1" fill="#a0a9ae" d="M 3767.5,2064.5 C 3767.87,2069.91 3766.87,2074.91 3764.5,2079.5C 3764.98,2074.27 3765.98,2069.27 3767.5,2064.5 Z"/></g>
<g><path style="opacity:1" fill="#364752" d="M 2998.5,2061.5 C 2998.07,2066.43 2998.07,2071.27 2998.5,2076C 2997.75,2077.73 2997.25,2079.57 2997,2081.5C 2996.67,2081.17 2996.33,2080.83 2996,2080.5C 2995.72,2081.42 2995.22,2082.08 2994.5,2082.5C 2995.86,2075.38 2997.19,2068.38 2998.5,2061.5 Z"/></g>
<g><path style="opacity:1" fill="#65747c" d="M 2992.5,2090.5 C 2992.59,2093.15 2991.92,2095.49 2990.5,2097.5C 2990.41,2094.85 2991.08,2092.51 2992.5,2090.5 Z"/></g>
<g><path style="opacity:1" fill="#45555f" d="M 2585.5,2097.5 C 2585.29,2099.92 2585.63,2102.25 2586.5,2104.5C 2585.45,2105.55 2584.45,2106.55 2583.5,2107.5C 2583.55,2103.92 2584.22,2100.59 2585.5,2097.5 Z"/></g>
<g><path style="opacity:1" fill="#6b7981" d="M 2989.5,2103.5 C 2989.81,2108.77 2989.14,2113.77 2987.5,2118.5C 2987.74,2113.31 2988.41,2108.31 2989.5,2103.5 Z"/></g>
<g><path style="opacity:1" fill="#616f78" d="M 3749.5,2163.5 C 3749.15,2168.68 3748.49,2173.68 3747.5,2178.5C 3747.1,2173.22 3747.76,2168.22 3749.5,2163.5 Z"/></g>
<g><path style="opacity:1" fill="#a9a1a9" d="M 3742.5,2198.5 C 3742.17,2201.17 3741.83,2203.83 3741.5,2206.5C 3740.83,2206.5 3740.17,2206.5 3739.5,2206.5C 3740.01,2203.57 3741.01,2200.9 3742.5,2198.5 Z"/></g>
<g><path style="opacity:1" fill="#9d99a1" d="M 3331.5,2199.5 C 3331.5,2201.83 3331.5,2204.17 3331.5,2206.5C 3330.83,2206.5 3330.17,2206.5 3329.5,2206.5C 3330.07,2204.05 3330.73,2201.71 3331.5,2199.5 Z"/></g>
<g><path style="opacity:1" fill="#93a1a6" d="M 3528.5,2200.5 C 3528.33,2202.62 3528.66,2204.62 3529.5,2206.5C 3528.5,2206.5 3527.5,2206.5 3526.5,2206.5C 3526.59,2204.21 3527.26,2202.21 3528.5,2200.5 Z"/></g>
<g><path style="opacity:1" fill="#2bdbb0" d="M 3329.5,2206.5 C 3330.17,2206.5 3330.83,2206.5 3331.5,2206.5C 3396.5,2207.83 3461.5,2207.83 3526.5,2206.5C 3527.5,2206.5 3528.5,2206.5 3529.5,2206.5C 3536.79,2207.26 3544.12,2207.76 3551.5,2208C 3612.5,2208.67 3673.5,2208.67 3734.5,2208C 3736.02,2206.99 3737.69,2206.49 3739.5,2206.5C 3740.17,2206.5 3740.83,2206.5 3741.5,2206.5C 3807.83,2207.83 3874.17,2207.83 3940.5,2206.5C 3947.79,2207.26 3955.12,2207.76 3962.5,2208C 4107.17,2208.33 4251.83,2208.67 4396.5,2209C 4519.29,2219.15 4631.63,2258.48 4733.5,2327C 4748.99,2338.91 4764.65,2350.58 4780.5,2362C 4804.69,2385.61 4828.52,2409.44 4852,2433.5C 4885.98,2475.18 4915.65,2519.85 4941,2567.5C 4946.1,2577.03 4950.1,2587.03 4953,2597.5C 4954.33,2599.5 4955.67,2601.5 4957,2603.5C 4959.61,2611.69 4962.45,2619.69 4965.5,2627.5C 4969.13,2636.06 4972.13,2644.73 4974.5,2653.5C 4976.04,2658.25 4977.87,2662.91 4980,2667.5C 4981.58,2678.57 4984.58,2689.23 4989,2699.5C 4994.65,2727.08 4999.99,2754.75 5005,2782.5C 5006.34,2812.71 5008.17,2842.88 5010.5,2873C 5008.38,2906.83 5006.22,2940.66 5004,2974.5C 4998.89,3002.16 4993.89,3029.83 4989,3057.5C 4985.54,3068.03 4982.7,3078.69 4980.5,3089.5C 4976.78,3097.36 4974.45,3105.69 4973.5,3114.5C 4966.27,3130.06 4961.11,3146.4 4958,3163.5C 4949.15,3182.54 4940.82,3201.87 4933,3221.5C 4932.38,3223.75 4931.04,3225.42 4929,3226.5C 4906.92,3274.99 4880.92,3321.33 4851,3365.5C 4845.38,3373.45 4839.38,3381.12 4833,3388.5C 4832.28,3390.95 4831.28,3393.28 4830,3395.5C 4824.62,3401.88 4819.62,3408.55 4815,3415.5C 4808.25,3422.41 4802.08,3429.75 4796.5,3437.5C 4792.77,3440.23 4789.77,3443.56 4787.5,3447.5C 4775.9,3461.11 4763.9,3474.44 4751.5,3487.5C 4741.17,3497.17 4731.17,3507.17 4721.5,3517.5C 4691.95,3544.94 4661.61,3571.44 4630.5,3597C 4609.83,3611.67 4589.17,3626.33 4568.5,3641C 4544.08,3654.38 4520.08,3668.55 4496.5,3683.5C 4494.22,3684.21 4491.89,3684.71 4489.5,3685C 4470.48,3694.88 4451.48,3704.88 4432.5,3715C 4429.42,3715.35 4426.42,3716.01 4423.5,3717C 4395.86,3730.49 4367.19,3741.16 4337.5,3749C 4324.98,3753.63 4312.31,3757.97 4299.5,3762C 4288.14,3763.26 4277.14,3765.92 4266.5,3770C 4252.5,3771.33 4238.83,3774.33 4225.5,3779C 4207.38,3779.96 4189.38,3781.96 4171.5,3785C 4148.81,3785.67 4126.14,3786.84 4103.5,3788.5C 3951.83,3789.33 3800.17,3789.83 3648.5,3790C 3645.96,3792.2 3643.79,3794.7 3642,3797.5C 3598.4,4041.32 3554.4,4285.32 3510,4529.5C 3507.71,4541.77 3505.88,4554.1 3504.5,4566.5C 3502.16,4572.16 3500.83,4578.16 3500.5,4584.5C 3483.96,4676.73 3467.46,4769.06 3451,4861.5C 3450.1,4862.7 3448.93,4863.53 3447.5,4864C 2922.17,4864.67 2396.83,4864.67 1871.5,4864C 1868.4,4862.73 1866.73,4860.4 1866.5,4857C 1871.74,4843.68 1874.57,4829.84 1875,4815.5C 1876.33,4810.52 1877.5,4805.52 1878.5,4800.5C 1880.5,4796.87 1881.5,4792.87 1881.5,4788.5C 1882.08,4779.85 1883.41,4771.18 1885.5,4762.5C 1888.54,4756.64 1889.88,4750.31 1889.5,4743.5C 1898.02,4697.77 1906.68,4652.11 1915.5,4606.5C 1916.26,4600.58 1917.26,4594.58 1918.5,4588.5C 1920.25,4581.11 1921.58,4573.78 1922.5,4566.5C 1923.3,4563.83 1923.96,4561 1924.5,4558C 1925.02,4557.05 1925.69,4556.22 1926.5,4555.5C 1925.48,4552.87 1925.48,4550.2 1926.5,4547.5C 1930.35,4523.07 1934.52,4498.74 1939,4474.5C 1941.45,4463.69 1943.95,4453.02 1946.5,4442.5C 1948.26,4436.41 1949.26,4430.08 1949.5,4423.5C 1951.58,4412.49 1953.58,4401.49 1955.5,4390.5C 1957.96,4386.27 1958.96,4381.61 1958.5,4376.5C 1985.03,4235.84 2011.7,4095.18 2038.5,3954.5C 2040.04,3952.16 2040.71,3949.5 2040.5,3946.5C 2040.5,3945.83 2040.5,3945.17 2040.5,3944.5C 2042.04,3942.16 2042.71,3939.5 2042.5,3936.5C 2047.09,3913.24 2051.42,3889.9 2055.5,3866.5C 2056.15,3866.2 2056.82,3865.86 2057.5,3865.5C 2058.65,3859.21 2059.31,3852.88 2059.5,3846.5C 2061.36,3835.19 2063.36,3823.85 2065.5,3812.5C 2064.85,3806.14 2064.52,3799.8 2064.5,3793.5C 2065.17,3793.17 2065.83,3792.83 2066.5,3792.5C 2132.57,3792.17 2198.57,3792.5 2264.5,3793.5C 2263.3,3799.39 2261.47,3805.06 2259,3810.5C 2244.23,3891.2 2229.39,3971.87 2214.5,4052.5C 2212.96,4057.61 2211.96,4062.94 2211.5,4068.5C 2209.98,4073.27 2208.98,4078.27 2208.5,4083.5C 2205.56,4098.1 2202.89,4112.77 2200.5,4127.5C 2198.47,4136.31 2196.81,4145.31 2195.5,4154.5C 2193.99,4159.71 2192.99,4165.04 2192.5,4170.5C 2190.96,4175.61 2189.96,4180.94 2189.5,4186.5C 2186.64,4198.33 2184.64,4210.33 2183.5,4222.5C 2180.66,4231.53 2178.66,4240.86 2177.5,4250.5C 2177.5,4251.17 2177.5,4251.83 2177.5,4252.5C 2176.23,4254.91 2175.57,4257.57 2175.5,4260.5C 2151.77,4390.43 2127.6,4520.43 2103,4650.5C 2102.27,4655.84 2101.93,4661.17 2102,4666.5C 2104.29,4668.37 2106.79,4669.87 2109.5,4671C 2500.5,4671.67 2891.5,4671.67 3282.5,4671C 3284.35,4670.16 3286.18,4669.33 3288,4668.5C 3289.94,4664.28 3291.61,4659.94 3293,4655.5C 3310.16,4563.2 3326.99,4470.87 3343.5,4378.5C 3344.92,4376.49 3345.59,4374.15 3345.5,4371.5C 3348.07,4355.48 3350.74,4339.48 3353.5,4323.5C 3355.26,4320.15 3356.26,4316.48 3356.5,4312.5C 3358.92,4296.75 3361.58,4281.09 3364.5,4265.5C 3367.3,4256.83 3368.97,4247.83 3369.5,4238.5C 3372.25,4223.52 3374.91,4208.52 3377.5,4193.5C 3379.87,4188.91 3380.87,4183.91 3380.5,4178.5C 3380.74,4174.39 3381.41,4170.39 3382.5,4166.5C 3384.87,4161.91 3385.87,4156.91 3385.5,4151.5C 3414.29,3992.78 3443.29,3834.11 3472.5,3675.5C 3473.92,3673.49 3474.59,3671.15 3474.5,3668.5C 3478.66,3645.53 3482.66,3622.53 3486.5,3599.5C 3487.45,3598.08 3487.78,3596.41 3487.5,3594.5C 3701.5,3594.67 3915.5,3594.5 4129.5,3594C 4134.35,3593.83 4139.02,3593.33 4143.5,3592.5C 4159.3,3589.37 4175.3,3587.71 4191.5,3587.5C 4194.78,3587.58 4197.78,3586.91 4200.5,3585.5C 4211.96,3580.97 4223.96,3578.3 4236.5,3577.5C 4243.69,3573.72 4251.36,3571.88 4259.5,3572C 4269.59,3567.08 4280.26,3563.75 4291.5,3562C 4293.5,3560.67 4295.5,3559.33 4297.5,3558C 4306.15,3557.38 4314.15,3554.71 4321.5,3550C 4337.05,3545.06 4352.05,3538.73 4366.5,3531C 4404.23,3514.3 4440.56,3494.63 4475.5,3472C 4486.61,3462.89 4498.28,3454.56 4510.5,3447C 4529.75,3432.21 4548.42,3416.71 4566.5,3400.5C 4586.75,3381.75 4606.58,3362.42 4626,3342.5C 4626.46,3341.91 4626.63,3341.24 4626.5,3340.5C 4642.56,3321.38 4658.4,3302.05 4674,3282.5C 4682.76,3267.89 4692.43,3253.89 4703,3240.5C 4733.96,3189.22 4759.96,3135.55 4781,3079.5C 4782.46,3070.46 4785.12,3061.79 4789,3053.5C 4790.71,3041.04 4794.04,3029.04 4799,3017.5C 4803.48,2989.51 4808.14,2961.51 4813,2933.5C 4814.58,2896.18 4814.91,2858.85 4814,2821.5C 4809.56,2800.64 4805.89,2779.64 4803,2758.5C 4798.75,2741.74 4794.08,2725.07 4789,2708.5C 4780.79,2689.54 4772.79,2670.54 4765,2651.5C 4757.25,2639.69 4750.25,2627.35 4744,2614.5C 4733,2598.83 4722,2583.17 4711,2567.5C 4693.89,2548.06 4675.73,2529.56 4656.5,2512C 4641.88,2501.72 4627.55,2491.05 4613.5,2480C 4595.76,2469.46 4577.76,2459.46 4559.5,2450C 4538.8,2441.39 4517.8,2433.23 4496.5,2425.5C 4493.78,2424.09 4490.78,2423.42 4487.5,2423.5C 4480.91,2422.02 4474.57,2419.86 4468.5,2417C 4454.1,2414.44 4439.76,2411.94 4425.5,2409.5C 4424.74,2408.73 4423.74,2408.23 4422.5,2408C 4418.85,2407.5 4415.18,2407.33 4411.5,2407.5C 4394.67,2404.36 4377.67,2402.19 4360.5,2401C 4152.17,2400.83 3943.83,2400.67 3735.5,2400.5C 3527.17,2400.67 3318.83,2400.83 3110.5,2401C 3099.13,2401.56 3087.79,2402.56 3076.5,2404C 3070.59,2404.67 3064.93,2405.84 3059.5,2407.5C 3053.32,2407.84 3047.32,2408.51 3041.5,2409.5C 3040.5,2409.5 3039.5,2409.5 3038.5,2409.5C 3033.27,2409.44 3028.27,2410.11 3023.5,2411.5C 3005.21,2413.02 2987.54,2417.19 2970.5,2424C 2961.5,2424.16 2953.17,2426.49 2945.5,2431C 2942.17,2431.33 2938.83,2431.67 2935.5,2432C 2907.19,2441.88 2879.19,2452.55 2851.5,2464C 2787.34,2495.2 2727.68,2533.2 2672.5,2578C 2652.63,2597.87 2632.13,2617.04 2611,2635.5C 2600.07,2649.1 2588.41,2662.1 2576,2674.5C 2524.09,2736.64 2482.09,2804.97 2450,2879.5C 2435.78,2922.14 2422.78,2965.14 2411,3008.5C 2410.13,3018.25 2408.96,3027.92 2407.5,3037.5C 2405.06,3042.5 2403.39,3047.83 2402.5,3053.5C 2396.81,3088.27 2390.47,3122.94 2383.5,3157.5C 2382.75,3161.77 2381.75,3166.11 2380.5,3170.5C 2378.41,3172.54 2378.08,3174.88 2379.5,3177.5C 2379.12,3178.93 2378.12,3179.76 2376.5,3180C 2311.17,3179.72 2245.84,3179.55 2180.5,3179.5C 2181.83,3178.17 2182.67,3176.5 2183,3174.5C 2188.42,3145.56 2193.26,3116.56 2197.5,3087.5C 2198.98,3083.28 2200.65,3079.11 2202.5,3075C 2201.58,3072.96 2201.24,3070.79 2201.5,3068.5C 2203.37,3056.71 2205.7,3045.04 2208.5,3033.5C 2210.38,3027.43 2211.38,3021.1 2211.5,3014.5C 2212.96,3003.2 2215.29,2992.2 2218.5,2981.5C 2219.99,2977.06 2220.99,2972.39 2221.5,2967.5C 2222.33,2961.18 2223.16,2954.84 2224,2948.5C 2227.94,2936.34 2231.27,2924.01 2234,2911.5C 2242.29,2885.92 2250.29,2860.25 2258,2834.5C 2262.22,2830.46 2263.72,2825.79 2262.5,2820.5C 2262.5,2819.83 2262.5,2819.17 2262.5,2818.5C 2268.15,2813.11 2271.65,2806.44 2273,2798.5C 2279.77,2786.3 2285.44,2773.63 2290,2760.5C 2293.62,2753.59 2296.96,2746.59 2300,2739.5C 2303.67,2733.83 2307.33,2728.17 2311,2722.5C 2327.14,2690.2 2345.81,2659.53 2367,2630.5C 2367.35,2628.78 2367.85,2627.12 2368.5,2625.5C 2368.38,2624.89 2368.04,2624.56 2367.5,2624.5C 2367.5,2624.17 2367.5,2623.83 2367.5,2623.5C 2369.47,2623.74 2371.3,2623.41 2373,2622.5C 2386.07,2601.72 2401.07,2582.39 2418,2564.5C 2452.05,2519.45 2491.22,2479.28 2535.5,2444C 2599.18,2386.63 2669.52,2339.3 2746.5,2302C 2748.06,2300.26 2749.73,2298.76 2751.5,2297.5C 2758.97,2296.6 2765.64,2293.77 2771.5,2289C 2783.7,2284.05 2795.7,2278.71 2807.5,2273C 2821.66,2268.06 2835.66,2262.73 2849.5,2257C 2864.35,2252.6 2879.02,2247.6 2893.5,2242C 2918.06,2236.32 2942.4,2229.82 2966.5,2222.5C 2966.83,2222.5 2967.17,2222.5 2967.5,2222.5C 2968.45,2223.15 2969.62,2223.49 2971,2223.5C 2985.98,2220.05 3001.15,2218.05 3016.5,2217.5C 3022.05,2217.47 3027.38,2216.81 3032.5,2215.5C 3045.76,2213.84 3059.1,2212.84 3072.5,2212.5C 3080.84,2212.67 3089.17,2212.5 3097.5,2212C 3101.74,2211.67 3105.74,2210.83 3109.5,2209.5C 3175.83,2209.67 3242.17,2209.5 3308.5,2209C 3315.01,2208.83 3321.35,2208.33 3327.5,2207.5C 3328.17,2207.17 3328.83,2206.83 3329.5,2206.5 Z"/></g>
<g><path style="opacity:1" fill="#23ab8e" d="M 3327.5,2207.5 C 3321.35,2208.33 3315.01,2208.83 3308.5,2209C 3242.17,2209.5 3175.83,2209.67 3109.5,2209.5C 3118.32,2208.67 3127.32,2208.17 3136.5,2208C 3200.17,2207.5 3263.83,2207.33 3327.5,2207.5 Z"/></g>
<g><path style="opacity:1" fill="#1c8c79" d="M 3109.5,2209.5 C 3105.74,2210.83 3101.74,2211.67 3097.5,2212C 3089.17,2212.5 3080.84,2212.67 3072.5,2212.5C 3084.72,2211.8 3097.05,2210.8 3109.5,2209.5 Z"/></g>
<g><path style="opacity:1" fill="#20a388" d="M 3032.5,2215.5 C 3027.38,2216.81 3022.05,2217.47 3016.5,2217.5C 3021.57,2215.82 3026.9,2215.16 3032.5,2215.5 Z"/></g>
<g><path style="opacity:1" fill="#595264" d="M 2969.5,2207.5 C 2968.72,2212.48 2968.06,2217.48 2967.5,2222.5C 2967.17,2222.5 2966.83,2222.5 2966.5,2222.5C 2966.12,2217.11 2967.12,2212.11 2969.5,2207.5 Z"/></g>
<g><path style="opacity:1" fill="#081f2c" d="M 4411.5,2407.5 C 4415.96,2408.64 4420.63,2409.31 4425.5,2409.5C 4439.76,2411.94 4454.1,2414.44 4468.5,2417C 4474.57,2419.86 4480.91,2422.02 4487.5,2423.5C 4490.22,2424.91 4493.22,2425.58 4496.5,2425.5C 4517.8,2433.23 4538.8,2441.39 4559.5,2450C 4577.76,2459.46 4595.76,2469.46 4613.5,2480C 4627.55,2491.05 4641.88,2501.72 4656.5,2512C 4675.73,2529.56 4693.89,2548.06 4711,2567.5C 4722,2583.17 4733,2598.83 4744,2614.5C 4750.25,2627.35 4757.25,2639.69 4765,2651.5C 4772.79,2670.54 4780.79,2689.54 4789,2708.5C 4794.08,2725.07 4798.75,2741.74 4803,2758.5C 4805.89,2779.64 4809.56,2800.64 4814,2821.5C 4814.91,2858.85 4814.58,2896.18 4813,2933.5C 4808.14,2961.51 4803.48,2989.51 4799,3017.5C 4794.04,3029.04 4790.71,3041.04 4789,3053.5C 4785.12,3061.79 4782.46,3070.46 4781,3079.5C 4759.96,3135.55 4733.96,3189.22 4703,3240.5C 4692.43,3253.89 4682.76,3267.89 4674,3282.5C 4658.4,3302.05 4642.56,3321.38 4626.5,3340.5C 4606.17,3360.17 4586.17,3380.17 4566.5,3400.5C 4548.42,3416.71 4529.75,3432.21 4510.5,3447C 4498.28,3454.56 4486.61,3462.89 4475.5,3472C 4440.56,3494.63 4404.23,3514.3 4366.5,3531C 4352.05,3538.73 4337.05,3545.06 4321.5,3550C 4314.15,3554.71 4306.15,3557.38 4297.5,3558C 4295.5,3559.33 4293.5,3560.67 4291.5,3562C 4280.26,3563.75 4269.59,3567.08 4259.5,3572C 4251.36,3571.88 4243.69,3573.72 4236.5,3577.5C 4223.96,3578.3 4211.96,3580.97 4200.5,3585.5C 4197.22,3585.42 4194.22,3586.09 4191.5,3587.5C 4175.3,3587.71 4159.3,3589.37 4143.5,3592.5C 4138.5,3592.5 4133.5,3592.5 4128.5,3592.5C 3914.5,3592.5 3700.5,3592.5 3486.5,3592.5C 3486.5,3594.83 3486.5,3597.17 3486.5,3599.5C 3482.66,3622.53 3478.66,3645.53 3474.5,3668.5C 3473.08,3670.51 3472.41,3672.85 3472.5,3675.5C 3443.29,3834.11 3414.29,3992.78 3385.5,4151.5C 3383.98,4156.27 3382.98,4161.27 3382.5,4166.5C 3381.41,4170.39 3380.74,4174.39 3380.5,4178.5C 3378.98,4183.27 3377.98,4188.27 3377.5,4193.5C 3374.91,4208.52 3372.25,4223.52 3369.5,4238.5C 3367.1,4247.24 3365.43,4256.24 3364.5,4265.5C 3361.58,4281.09 3358.92,4296.75 3356.5,4312.5C 3354.74,4315.85 3353.74,4319.52 3353.5,4323.5C 3350.74,4339.48 3348.07,4355.48 3345.5,4371.5C 3344.08,4373.51 3343.41,4375.85 3343.5,4378.5C 3326.99,4470.87 3310.16,4563.2 3293,4655.5C 3291.61,4659.94 3289.94,4664.28 3288,4668.5C 3286.18,4669.33 3284.35,4670.16 3282.5,4671C 2891.5,4671.67 2500.5,4671.67 2109.5,4671C 2106.79,4669.87 2104.29,4668.37 2102,4666.5C 2101.93,4661.17 2102.27,4655.84 2103,4650.5C 2127.6,4520.43 2151.77,4390.43 2175.5,4260.5C 2177.04,4258.16 2177.71,4255.5 2177.5,4252.5C 2177.5,4251.83 2177.5,4251.17 2177.5,4250.5C 2178.22,4250.08 2178.72,4249.42 2179,4248.5C 2179.33,4248.83 2179.67,4249.17 2180,4249.5C 2181.19,4246.15 2181.36,4242.82 2180.5,4239.5C 2180.48,4237.63 2180.98,4237.29 2182,4238.5C 2182.37,4236.3 2182.87,4234.14 2183.5,4232C 2183.45,4228.64 2183.45,4225.48 2183.5,4222.5C 2184.64,4210.33 2186.64,4198.33 2189.5,4186.5C 2191.76,4181.53 2192.76,4176.19 2192.5,4170.5C 2192.99,4165.04 2193.99,4159.71 2195.5,4154.5C 2198.63,4151.06 2199.63,4147.06 2198.5,4142.5C 2199.9,4137.59 2200.57,4132.59 2200.5,4127.5C 2202.89,4112.77 2205.56,4098.1 2208.5,4083.5C 2210.87,4078.91 2211.87,4073.91 2211.5,4068.5C 2213.76,4063.53 2214.76,4058.19 2214.5,4052.5C 2229.39,3971.87 2244.23,3891.2 2259,3810.5C 2261.47,3805.06 2263.3,3799.39 2264.5,3793.5C 2336.1,3792.5 2407.76,3792.17 2479.5,3792.5C 2479.24,3800.89 2478.41,3809.22 2477,3817.5C 2473.96,3826.14 2472.62,3835.14 2473,3844.5C 2470.01,3855.48 2467.17,3866.48 2464.5,3877.5C 2463.12,3882.94 2462.45,3888.61 2462.5,3894.5C 2461.46,3902.3 2459.79,3909.96 2457.5,3917.5C 2456.11,3922.27 2455.44,3927.27 2455.5,3932.5C 2453.96,3941.31 2451.8,3949.97 2449,3958.5C 2446.32,3978.55 2443.32,3998.55 2440,4018.5C 2435.45,4034.55 2432.45,4050.88 2431,4067.5C 2406.75,4192.57 2383.59,4317.9 2361.5,4443.5C 2360.6,4444.21 2360.26,4445.21 2360.5,4446.5C 2611,4446.83 2861.33,4446.5 3111.5,4445.5C 3113.88,4442.27 3114.88,4438.61 3114.5,4434.5C 3115.97,4430.08 3116.64,4425.41 3116.5,4420.5C 3119.63,4408.97 3122.3,4397.3 3124.5,4385.5C 3126.18,4380.43 3126.84,4375.1 3126.5,4369.5C 3127.8,4362.62 3129.47,4355.96 3131.5,4349.5C 3132.27,4348.74 3132.77,4347.74 3133,4346.5C 3133.5,4339.84 3133.67,4333.17 3133.5,4326.5C 3134.76,4323.23 3135.92,4319.9 3137,4316.5C 3141.48,4291.88 3145.64,4267.21 3149.5,4242.5C 3151.73,4233.86 3153.9,4225.19 3156,4216.5C 3175.19,4109.05 3194.69,4001.72 3214.5,3894.5C 3215.77,3892.09 3216.43,3889.43 3216.5,3886.5C 3217.96,3877.85 3219.3,3869.18 3220.5,3860.5C 3222.29,3854.73 3223.62,3848.73 3224.5,3842.5C 3231.67,3799.79 3239.17,3757.12 3247,3714.5C 3248.01,3711.8 3249.51,3709.46 3251.5,3707.5C 3378.27,3646.62 3488.44,3563.29 3582,3457.5C 3585.33,3452.83 3588.67,3448.17 3592,3443.5C 3611.58,3422.26 3629.24,3399.6 3645,3375.5C 3646.37,3373.96 3647.87,3372.63 3649.5,3371.5C 3834.83,3371.67 4020.17,3371.5 4205.5,3371C 4219.82,3368.84 4234.15,3366.84 4248.5,3365C 4254.98,3363.06 4261.31,3360.73 4267.5,3358C 4273.08,3356.48 4278.74,3355.48 4284.5,3355C 4289.39,3351.89 4294.72,3349.89 4300.5,3349C 4310.03,3344.15 4319.7,3339.48 4329.5,3335C 4334.85,3334.33 4339.85,3332.67 4344.5,3330C 4375.44,3313.05 4404.77,3293.72 4432.5,3272C 4454.39,3250.45 4475.89,3228.61 4497,3206.5C 4508.06,3189.48 4519.39,3172.81 4531,3156.5C 4540.6,3138.29 4549.94,3119.96 4559,3101.5C 4560.15,3094.2 4562.82,3087.53 4567,3081.5C 4569,3073.18 4572,3065.18 4576,3057.5C 4575.72,3048.4 4577.38,3039.73 4581,3031.5C 4583.72,3014.74 4586.89,2998.07 4590.5,2981.5C 4591.66,2961 4591.83,2940.34 4591,2919.5C 4590.81,2916.96 4590.31,2914.63 4589.5,2912.5C 4585.4,2890.03 4580.9,2867.7 4576,2845.5C 4571.16,2838.14 4567.83,2830.14 4566,2821.5C 4557.98,2804.64 4549.48,2787.98 4540.5,2771.5C 4534.1,2762.37 4527.93,2753.04 4522,2743.5C 4515.29,2736.46 4508.96,2729.13 4503,2721.5C 4465.33,2684.75 4421.83,2657.25 4372.5,2639C 4351.31,2633.73 4329.97,2628.89 4308.5,2624.5C 4301.17,2623.83 4293.83,2623.17 4286.5,2622.5C 4078.68,2621.83 3867.52,2621.5 3653,2621.5C 3440.17,2621.67 3227.33,2621.83 3014.5,2622C 3012.62,2622.2 3010.95,2622.7 3009.5,2623.5C 3009.5,2623.83 3009.5,2624.17 3009.5,2624.5C 2986.52,2629.82 2963.52,2634.65 2940.5,2639C 2927.83,2644.67 2914.83,2649.33 2901.5,2653C 2882.09,2662.7 2862.76,2672.37 2843.5,2682C 2814.28,2700.4 2786.94,2721.23 2761.5,2744.5C 2758.5,2746.83 2755.83,2749.5 2753.5,2752.5C 2741.89,2763.95 2730.72,2775.95 2720,2788.5C 2715.82,2796.35 2710.48,2803.35 2704,2809.5C 2692.74,2827.7 2681.74,2846.03 2671,2864.5C 2666.95,2875.66 2661.95,2886.33 2656,2896.5C 2650.17,2912.83 2644.51,2929.16 2639,2945.5C 2633.03,2974.52 2626.86,3003.52 2620.5,3032.5C 2619.51,3037.05 2618.51,3041.72 2617.5,3046.5C 2615.15,3053.27 2613.82,3060.27 2613.5,3067.5C 2612.6,3072.33 2611.93,3077.33 2611.5,3082.5C 2609.89,3090.32 2608.56,3098.32 2607.5,3106.5C 2606.03,3110.92 2605.36,3115.59 2605.5,3120.5C 2602.86,3138.19 2599.69,3155.86 2596,3173.5C 2595.4,3176.25 2593.9,3178.25 2591.5,3179.5C 2521.83,3179.67 2452.17,3179.5 2382.5,3179C 2381.47,3178.49 2380.47,3177.99 2379.5,3177.5C 2378.08,3174.88 2378.41,3172.54 2380.5,3170.5C 2381.97,3169.65 2382.8,3168.32 2383,3166.5C 2383.5,3163.52 2383.66,3160.52 2383.5,3157.5C 2390.47,3122.94 2396.81,3088.27 2402.5,3053.5C 2404.94,3048.5 2406.61,3043.17 2407.5,3037.5C 2408.96,3027.92 2410.13,3018.25 2411,3008.5C 2422.78,2965.14 2435.78,2922.14 2450,2879.5C 2482.09,2804.97 2524.09,2736.64 2576,2674.5C 2588.41,2662.1 2600.07,2649.1 2611,2635.5C 2632.13,2617.04 2652.63,2597.87 2672.5,2578C 2727.68,2533.2 2787.34,2495.2 2851.5,2464C 2879.19,2452.55 2907.19,2441.88 2935.5,2432C 2938.83,2431.67 2942.17,2431.33 2945.5,2431C 2953.17,2426.49 2961.5,2424.16 2970.5,2424C 2987.54,2417.19 3005.21,2413.02 3023.5,2411.5C 3028.73,2411.56 3033.73,2410.89 3038.5,2409.5C 3039.5,2409.5 3040.5,2409.5 3041.5,2409.5C 3047.76,2409.9 3053.76,2409.23 3059.5,2407.5C 3064.93,2405.84 3070.59,2404.67 3076.5,2404C 3087.79,2402.56 3099.13,2401.56 3110.5,2401C 3318.83,2400.83 3527.17,2400.67 3735.5,2400.5C 3943.83,2400.67 4152.17,2400.83 4360.5,2401C 4377.67,2402.19 4394.67,2404.36 4411.5,2407.5 Z"/></g>
<g><path style="opacity:1" fill="#6d7b83" d="M 2525.5,2403.5 C 2523.29,2405.31 2520.95,2405.65 2518.5,2404.5C 2520.81,2404.01 2523.14,2403.67 2525.5,2403.5 Z"/></g>
<g><path style="opacity:1" fill="#20a288" d="M 4411.5,2407.5 C 4415.18,2407.33 4418.85,2407.5 4422.5,2408C 4423.74,2408.23 4424.74,2408.73 4425.5,2409.5C 4420.63,2409.31 4415.96,2408.64 4411.5,2407.5 Z"/></g>
<g><path style="opacity:1" fill="#135552" d="M 3059.5,2407.5 C 3053.76,2409.23 3047.76,2409.9 3041.5,2409.5C 3047.32,2408.51 3053.32,2407.84 3059.5,2407.5 Z"/></g>
<g><path style="opacity:1" fill="#124d4d" d="M 3038.5,2409.5 C 3033.73,2410.89 3028.73,2411.56 3023.5,2411.5C 3028.27,2410.11 3033.27,2409.44 3038.5,2409.5 Z"/></g>
<g><path style="opacity:1" fill="#1b8573" d="M 4487.5,2423.5 C 4490.78,2423.42 4493.78,2424.09 4496.5,2425.5C 4493.22,2425.58 4490.22,2424.91 4487.5,2423.5 Z"/></g>
<g><path style="opacity:1" fill="#061323" d="M 4286.5,2622.5 C 3860.82,2622.17 3435.15,2622.5 3009.5,2623.5C 3010.95,2622.7 3012.62,2622.2 3014.5,2622C 3227.33,2621.83 3440.17,2621.67 3653,2621.5C 3867.52,2621.5 4078.68,2621.83 4286.5,2622.5 Z"/></g>
<g><path style="opacity:1" fill="#dbdee0" d="M 2367.5,2623.5 C 2367.5,2623.83 2367.5,2624.17 2367.5,2624.5C 2185.5,2624.5 2003.5,2624.5 1821.5,2624.5C 2001.01,2623.83 2180.68,2623.16 2360.5,2622.5C 2362.86,2622.75 2365.19,2623.09 2367.5,2623.5 Z"/></g>
<g><path style="opacity:1" fill="#23b192" d="M 4286.5,2622.5 C 4293.83,2623.17 4301.17,2623.83 4308.5,2624.5C 3875.5,2624.5 3442.5,2624.5 3009.5,2624.5C 3009.5,2624.17 3009.5,2623.83 3009.5,2623.5C 3435.15,2622.5 3860.82,2622.17 4286.5,2622.5 Z"/></g>
<g><path style="opacity:1" fill="#fefefe" d="M 1821.5,2624.5 C 2003.5,2624.5 2185.5,2624.5 2367.5,2624.5C 2368.04,2624.56 2368.38,2624.89 2368.5,2625.5C 2367.85,2627.12 2367.35,2628.78 2367,2630.5C 2345.81,2659.53 2327.14,2690.2 2311,2722.5C 2307.33,2728.17 2303.67,2733.83 2300,2739.5C 2296.96,2746.59 2293.62,2753.59 2290,2760.5C 2285.44,2773.63 2279.77,2786.3 2273,2798.5C 2271.65,2806.44 2268.15,2813.11 2262.5,2818.5C 2120.35,2819.16 1978.35,2819.82 1836.5,2820.5C 1827.26,2822.26 1817.93,2823.42 1808.5,2824C 1730.2,2844.74 1672.7,2891.24 1636,2963.5C 1630.27,2976.69 1624.94,2990.02 1620,3003.5C 1614.54,3032.46 1614.2,3061.46 1619,3090.5C 1635.58,3142.21 1670.74,3172.04 1724.5,3180C 1876.49,3179.54 2028.49,3179.37 2180.5,3179.5C 2245.84,3179.55 2311.17,3179.72 2376.5,3180C 2378.12,3179.76 2379.12,3178.93 2379.5,3177.5C 2380.47,3177.99 2381.47,3178.49 2382.5,3179C 2452.17,3179.5 2521.83,3179.67 2591.5,3179.5C 2656.35,3179.18 2721.18,3179.51 2786,3180.5C 2788.66,3180.33 2791.16,3179.67 2793.5,3178.5C 2824.63,3179.16 2855.79,3179.49 2887,3179.5C 2967.07,3192.19 3038.57,3173.69 3101.5,3124C 3142.64,3088.18 3170.81,3044.01 3186,2991.5C 3189.58,2976.54 3192.91,2961.54 3196,2946.5C 3202.75,2906.05 3209.25,2865.72 3215.5,2825.5C 3216.48,2822.71 3216.81,2819.71 3216.5,2816.5C 3282.54,2816.17 3348.54,2816.51 3414.5,2817.5C 3411.84,2837.48 3409.17,2857.48 3406.5,2877.5C 3404.37,2883.53 3403.37,2889.86 3403.5,2896.5C 3402.58,2902.84 3401.58,2909.17 3400.5,2915.5C 3397.59,2923.81 3395.93,2932.48 3395.5,2941.5C 3390.35,2964.05 3385.68,2986.71 3381.5,3009.5C 3380.01,3013.24 3379.34,3017.24 3379.5,3021.5C 3378.34,3025.01 3377.34,3028.68 3376.5,3032.5C 3374.46,3038.3 3372.8,3044.3 3371.5,3050.5C 3368.61,3058.03 3366.61,3065.86 3365.5,3074C 3363.62,3076.26 3362.12,3078.76 3361,3081.5C 3357.38,3093.03 3353.38,3104.37 3349,3115.5C 3333.42,3147.01 3315.09,3176.68 3294,3204.5C 3269.83,3232.67 3243.67,3258.83 3215.5,3283C 3189.95,3300.94 3163.61,3317.61 3136.5,3333C 3124.75,3337.03 3113.42,3342.03 3102.5,3348C 3085.71,3353.2 3069.04,3358.7 3052.5,3364.5C 3046.67,3364.97 3041,3365.64 3035.5,3366.5C 3028.69,3368.74 3021.69,3370.24 3014.5,3371C 3001.66,3371.51 2988.99,3372.34 2976.5,3373.5C 2559.83,3373.5 2143.17,3373.5 1726.5,3373.5C 1720.69,3372.51 1714.69,3372.18 1708.5,3372.5C 1700.72,3370.91 1692.72,3370.25 1684.5,3370.5C 1673.29,3367.86 1661.95,3365.7 1650.5,3364C 1641.13,3359.81 1631.46,3356.48 1621.5,3354C 1609.71,3348.94 1598.05,3343.61 1586.5,3338C 1490.03,3282.64 1434.86,3199.48 1421,3088.5C 1420.33,3062.83 1420.33,3037.17 1421,3011.5C 1424.65,2998.43 1426.65,2985.1 1427,2971.5C 1432.62,2951.7 1438.62,2932.03 1445,2912.5C 1450.84,2901.64 1455.51,2890.31 1459,2878.5C 1468.07,2863.76 1476.73,2848.76 1485,2833.5C 1547.52,2737.3 1633.68,2672.13 1743.5,2638C 1761.32,2633.95 1779.32,2630.79 1797.5,2628.5C 1800.5,2628.71 1803.16,2628.04 1805.5,2626.5C 1810.61,2624.82 1815.94,2624.15 1821.5,2624.5 Z"/></g>
<g><path style="opacity:1" fill="#2bdbb0" d="M 3009.5,2624.5 C 3442.5,2624.5 3875.5,2624.5 4308.5,2624.5C 4329.97,2628.89 4351.31,2633.73 4372.5,2639C 4421.83,2657.25 4465.33,2684.75 4503,2721.5C 4508.96,2729.13 4515.29,2736.46 4522,2743.5C 4527.93,2753.04 4534.1,2762.37 4540.5,2771.5C 4549.48,2787.98 4557.98,2804.64 4566,2821.5C 4567.83,2830.14 4571.16,2838.14 4576,2845.5C 4580.9,2867.7 4585.4,2890.03 4589.5,2912.5C 4590.41,2935.48 4590.75,2958.48 4590.5,2981.5C 4586.89,2998.07 4583.72,3014.74 4581,3031.5C 4577.38,3039.73 4575.72,3048.4 4576,3057.5C 4572,3065.18 4569,3073.18 4567,3081.5C 4562.82,3087.53 4560.15,3094.2 4559,3101.5C 4549.94,3119.96 4540.6,3138.29 4531,3156.5C 4519.39,3172.81 4508.06,3189.48 4497,3206.5C 4475.89,3228.61 4454.39,3250.45 4432.5,3272C 4404.77,3293.72 4375.44,3313.05 4344.5,3330C 4339.85,3332.67 4334.85,3334.33 4329.5,3335C 4319.7,3339.48 4310.03,3344.15 4300.5,3349C 4294.72,3349.89 4289.39,3351.89 4284.5,3355C 4278.74,3355.48 4273.08,3356.48 4267.5,3358C 4261.31,3360.73 4254.98,3363.06 4248.5,3365C 4234.15,3366.84 4219.82,3368.84 4205.5,3371C 4020.17,3371.5 3834.83,3371.67 3649.5,3371.5C 3658.87,3357.6 3667.71,3343.27 3676,3328.5C 3678.33,3325.5 3680.67,3322.5 3683,3319.5C 3694.19,3300.46 3704.86,3281.12 3715,3261.5C 3730.18,3232.17 3743.34,3202.17 3754.5,3171.5C 3754.04,3174.39 3754.71,3176.89 3756.5,3179C 3893.5,3179.67 4030.5,3179.67 4167.5,3179C 4182.24,3177.51 4196.9,3175.51 4211.5,3173C 4252.69,3160.53 4288.85,3139.7 4320,3110.5C 4337.23,3092.95 4352.56,3073.95 4366,3053.5C 4372.27,3041.29 4378.27,3028.96 4384,3016.5C 4385.23,3008.58 4387.23,3000.92 4390,2993.5C 4392.57,2977.42 4394.41,2961.25 4395.5,2945C 4393.38,2931.89 4391.54,2918.73 4390,2905.5C 4387.26,2900.87 4385.59,2895.87 4385,2890.5C 4377.03,2877.39 4368.19,2864.89 4358.5,2853C 4349.17,2846.33 4339.83,2839.67 4330.5,2833C 4314.89,2825.68 4298.56,2820.34 4281.5,2817C 4132.43,2816.17 3983.43,2816.34 3834.5,2817.5C 3833.83,2817.5 3833.17,2817.5 3832.5,2817.5C 3765.65,2816.82 3698.65,2816.15 3631.5,2815.5C 3559.15,2816.16 3486.82,2816.82 3414.5,2817.5C 3348.54,2816.51 3282.54,2816.17 3216.5,2816.5C 3215.83,2816.5 3215.17,2816.5 3214.5,2816.5C 3156.5,2816.33 3098.5,2816.5 3040.5,2817C 3027.28,2819.96 3013.94,2822.3 3000.5,2824C 2997.13,2824.52 2994.13,2825.85 2991.5,2828C 2987.78,2828.39 2984.11,2829.06 2980.5,2830C 2968.46,2836.01 2956.46,2842.01 2944.5,2848C 2934.17,2855 2923.83,2862 2913.5,2869C 2906.77,2876.41 2899.43,2883.07 2891.5,2889C 2885.4,2897.1 2878.57,2904.6 2871,2911.5C 2855.69,2932.45 2842.69,2954.79 2832,2978.5C 2826.61,3003.91 2820.94,3029.24 2815,3054.5C 2813.95,3068.04 2811.61,3081.38 2808,3094.5C 2804.16,3118.71 2801.16,3143.04 2799,3167.5C 2798.58,3171.95 2796.75,3175.62 2793.5,3178.5C 2791.16,3179.67 2788.66,3180.33 2786,3180.5C 2721.18,3179.51 2656.35,3179.18 2591.5,3179.5C 2593.9,3178.25 2595.4,3176.25 2596,3173.5C 2599.69,3155.86 2602.86,3138.19 2605.5,3120.5C 2607.1,3116.1 2607.77,3111.43 2607.5,3106.5C 2608.56,3098.32 2609.89,3090.32 2611.5,3082.5C 2612.27,3081.74 2612.77,3080.74 2613,3079.5C 2613.5,3075.51 2613.67,3071.51 2613.5,3067.5C 2613.82,3060.27 2615.15,3053.27 2617.5,3046.5C 2619.96,3042.26 2620.96,3037.6 2620.5,3032.5C 2626.86,3003.52 2633.03,2974.52 2639,2945.5C 2644.51,2929.16 2650.17,2912.83 2656,2896.5C 2661.95,2886.33 2666.95,2875.66 2671,2864.5C 2681.74,2846.03 2692.74,2827.7 2704,2809.5C 2710.48,2803.35 2715.82,2796.35 2720,2788.5C 2730.72,2775.95 2741.89,2763.95 2753.5,2752.5C 2757.21,2750.79 2759.88,2748.12 2761.5,2744.5C 2786.94,2721.23 2814.28,2700.4 2843.5,2682C 2862.76,2672.37 2882.09,2662.7 2901.5,2653C 2914.83,2649.33 2927.83,2644.67 2940.5,2639C 2963.52,2634.65 2986.52,2629.82 3009.5,2624.5 Z"/></g>
<g><path style="opacity:1" fill="#839095" d="M 1805.5,2626.5 C 1803.16,2628.04 1800.5,2628.71 1797.5,2628.5C 1799.91,2627.23 1802.57,2626.57 1805.5,2626.5 Z"/></g>
<g><path style="opacity:1" fill="#0e353c" d="M 4965.5,2627.5 C 4966.5,2627.41 4967.33,2627.75 4968,2628.5C 4970.14,2633.92 4972.47,2639.25 4975,2644.5C 4974.85,2647.45 4974.68,2650.45 4974.5,2653.5C 4972.13,2644.73 4969.13,2636.06 4965.5,2627.5 Z"/></g>
<g><path style="opacity:1" fill="#1e957f" d="M 2761.5,2744.5 C 2759.88,2748.12 2757.21,2750.79 2753.5,2752.5C 2755.83,2749.5 2758.5,2746.83 2761.5,2744.5 Z"/></g>
<g><path style="opacity:1" fill="#9ae7d4" d="M 3631.5,2815.5 C 3698.65,2816.15 3765.65,2816.82 3832.5,2817.5C 3767.17,2817.5 3701.83,2817.5 3636.5,2817.5C 3636.78,2819.41 3636.45,2821.08 3635.5,2822.5C 3636.32,2818.72 3634.99,2816.39 3631.5,2815.5 Z"/></g>
<g><path style="opacity:1" fill="#081f2c" d="M 3214.5,2816.5 C 3215.4,2819.39 3215.74,2822.39 3215.5,2825.5C 3209.25,2865.72 3202.75,2906.05 3196,2946.5C 3192.91,2961.54 3189.58,2976.54 3186,2991.5C 3170.81,3044.01 3142.64,3088.18 3101.5,3124C 3038.57,3173.69 2967.07,3192.19 2887,3179.5C 2855.79,3179.49 2824.63,3179.16 2793.5,3178.5C 2796.75,3175.62 2798.58,3171.95 2799,3167.5C 2801.16,3143.04 2804.16,3118.71 2808,3094.5C 2811.61,3081.38 2813.95,3068.04 2815,3054.5C 2820.94,3029.24 2826.61,3003.91 2832,2978.5C 2842.69,2954.79 2855.69,2932.45 2871,2911.5C 2878.57,2904.6 2885.4,2897.1 2891.5,2889C 2899.43,2883.07 2906.77,2876.41 2913.5,2869C 2923.83,2862 2934.17,2855 2944.5,2848C 2956.46,2842.01 2968.46,2836.01 2980.5,2830C 2984.11,2829.06 2987.78,2828.39 2991.5,2828C 2994.13,2825.85 2997.13,2824.52 3000.5,2824C 3013.94,2822.3 3027.28,2819.96 3040.5,2817C 3098.5,2816.5 3156.5,2816.33 3214.5,2816.5 Z"/></g>
<g><path style="opacity:1" fill="#081f2c" d="M 3754.5,3171.5 C 3759.78,3159.42 3764.61,3147.08 3769,3134.5C 3769.89,3126.39 3772.22,3118.73 3776,3111.5C 3779.26,3097.05 3782.93,3082.72 3787,3068.5C 3788.72,3061.9 3790.89,3055.57 3793.5,3049.5C 3794.89,3044.73 3795.56,3039.73 3795.5,3034.5C 3795.26,3032.1 3795.93,3030.1 3797.5,3028.5C 3798.27,3027.74 3798.77,3026.74 3799,3025.5C 3799.5,3021.85 3799.67,3018.18 3799.5,3014.5C 3801.05,3003.31 3803.38,2992.31 3806.5,2981.5C 3807.92,2979.49 3808.59,2977.15 3808.5,2974.5C 3816.48,2931.31 3823.65,2887.97 3830,2844.5C 3832.82,2835.73 3834.32,2826.73 3834.5,2817.5C 3983.43,2816.34 4132.43,2816.17 4281.5,2817C 4298.56,2820.34 4314.89,2825.68 4330.5,2833C 4339.83,2839.67 4349.17,2846.33 4358.5,2853C 4368.19,2864.89 4377.03,2877.39 4385,2890.5C 4385.59,2895.87 4387.26,2900.87 4390,2905.5C 4391.54,2918.73 4393.38,2931.89 4395.5,2945C 4394.41,2961.25 4392.57,2977.42 4390,2993.5C 4387.23,3000.92 4385.23,3008.58 4384,3016.5C 4378.27,3028.96 4372.27,3041.29 4366,3053.5C 4352.56,3073.95 4337.23,3092.95 4320,3110.5C 4288.85,3139.7 4252.69,3160.53 4211.5,3173C 4196.9,3175.51 4182.24,3177.51 4167.5,3179C 4030.5,3179.67 3893.5,3179.67 3756.5,3179C 3754.71,3176.89 3754.04,3174.39 3754.5,3171.5 Z"/></g>
<g><path style="opacity:1" fill="#54646d" d="M 2262.5,2818.5 C 2262.5,2819.17 2262.5,2819.83 2262.5,2820.5C 2120.5,2820.5 1978.5,2820.5 1836.5,2820.5C 1978.35,2819.82 2120.35,2819.16 2262.5,2818.5 Z"/></g>
<g><path style="opacity:1" fill="#081f2c" d="M 1836.5,2820.5 C 1978.5,2820.5 2120.5,2820.5 2262.5,2820.5C 2263.72,2825.79 2262.22,2830.46 2258,2834.5C 2250.29,2860.25 2242.29,2885.92 2234,2911.5C 2231.27,2924.01 2227.94,2936.34 2224,2948.5C 2223.16,2954.84 2222.33,2961.18 2221.5,2967.5C 2219.04,2971.74 2218.04,2976.4 2218.5,2981.5C 2215.29,2992.2 2212.96,3003.2 2211.5,3014.5C 2209.55,3020.56 2208.55,3026.89 2208.5,3033.5C 2205.7,3045.04 2203.37,3056.71 2201.5,3068.5C 2199.43,3074.56 2198.1,3080.89 2197.5,3087.5C 2193.26,3116.56 2188.42,3145.56 2183,3174.5C 2182.67,3176.5 2181.83,3178.17 2180.5,3179.5C 2028.49,3179.37 1876.49,3179.54 1724.5,3180C 1670.74,3172.04 1635.58,3142.21 1619,3090.5C 1614.2,3061.46 1614.54,3032.46 1620,3003.5C 1624.94,2990.02 1630.27,2976.69 1636,2963.5C 1672.7,2891.24 1730.2,2844.74 1808.5,2824C 1817.93,2823.42 1827.26,2822.26 1836.5,2820.5 Z"/></g>
<g><path style="opacity:1" fill="#85979b" d="M 3214.5,2816.5 C 3215.17,2816.5 3215.83,2816.5 3216.5,2816.5C 3216.81,2819.71 3216.48,2822.71 3215.5,2825.5C 3215.74,2822.39 3215.4,2819.39 3214.5,2816.5 Z"/></g>
<g><path style="opacity:1" fill="#9aa2a8" d="M 3635.5,2822.5 C 3635.93,2828.11 3635.26,2833.45 3633.5,2838.5C 3633.87,2832.99 3634.54,2827.66 3635.5,2822.5 Z"/></g>
<g><path style="opacity:1" fill="#7b878e" d="M 3630.5,2851.5 C 3630.47,2857.05 3629.81,2862.38 3628.5,2867.5C 3628.25,2861.92 3628.92,2856.58 3630.5,2851.5 Z"/></g>
<g><path style="opacity:1" fill="#394a55" d="M 3406.5,2877.5 C 3406.26,2883.18 3405.76,2888.85 3405,2894.5C 3404.72,2895.42 3404.22,2896.08 3403.5,2896.5C 3403.37,2889.86 3404.37,2883.53 3406.5,2877.5 Z"/></g>
<g><path style="opacity:1" fill="#394955" d="M 3621.5,2912.5 C 3620.8,2920.73 3619.46,2928.73 3617.5,2936.5C 3617.94,2932.09 3617.94,2927.76 3617.5,2923.5C 3618.23,2920.15 3619.06,2916.81 3620,2913.5C 3620.38,2912.94 3620.88,2912.61 3621.5,2912.5 Z"/></g>
<g><path style="opacity:1" fill="#30414d" d="M 3400.5,2915.5 C 3400.62,2917.2 3400.95,2918.87 3401.5,2920.5C 3399.62,2927.66 3397.62,2934.66 3395.5,2941.5C 3395.93,2932.48 3397.59,2923.81 3400.5,2915.5 Z"/></g>
<g><path style="opacity:1" fill="#22ab8f" d="M 4589.5,2912.5 C 4590.31,2914.63 4590.81,2916.96 4591,2919.5C 4591.83,2940.34 4591.66,2961 4590.5,2981.5C 4590.75,2958.48 4590.41,2935.48 4589.5,2912.5 Z"/></g>
<g><path style="opacity:1" fill="#20a187" d="M 2221.5,2967.5 C 2220.99,2972.39 2219.99,2977.06 2218.5,2981.5C 2218.04,2976.4 2219.04,2971.74 2221.5,2967.5 Z"/></g>
<g><path style="opacity:1" fill="#5b6a73" d="M 3808.5,2974.5 C 3808.59,2977.15 3807.92,2979.49 3806.5,2981.5C 3806.41,2978.85 3807.08,2976.51 3808.5,2974.5 Z"/></g>
<g><path style="opacity:1" fill="#44545f" d="M 3381.5,3009.5 C 3381.29,3011.92 3381.63,3014.25 3382.5,3016.5C 3382.15,3017.7 3381.65,3017.7 3381,3016.5C 3380.8,3018.38 3380.3,3020.05 3379.5,3021.5C 3379.34,3017.24 3380.01,3013.24 3381.5,3009.5 Z"/></g>
<g><path style="opacity:1" fill="#1f9a83" d="M 2211.5,3014.5 C 2211.38,3021.1 2210.38,3027.43 2208.5,3033.5C 2208.55,3026.89 2209.55,3020.56 2211.5,3014.5 Z"/></g>
<g><path style="opacity:1" fill="#5c6b74" d="M 3799.5,3014.5 C 3799.67,3018.18 3799.5,3021.85 3799,3025.5C 3798.77,3026.74 3798.27,3027.74 3797.5,3028.5C 3797.91,3023.66 3798.58,3018.99 3799.5,3014.5 Z"/></g>
<g><path style="opacity:1" fill="#6d7a82" d="M 3376.5,3032.5 C 3376.02,3038.93 3374.35,3044.93 3371.5,3050.5C 3372.8,3044.3 3374.46,3038.3 3376.5,3032.5 Z"/></g>
<g><path style="opacity:1" fill="#20a087" d="M 2620.5,3032.5 C 2620.96,3037.6 2619.96,3042.26 2617.5,3046.5C 2618.51,3041.72 2619.51,3037.05 2620.5,3032.5 Z"/></g>
<g><path style="opacity:1" fill="#125552" d="M 2407.5,3037.5 C 2406.61,3043.17 2404.94,3048.5 2402.5,3053.5C 2403.39,3047.83 2405.06,3042.5 2407.5,3037.5 Z"/></g>
<g><path style="opacity:1" fill="#4f606a" d="M 3795.5,3034.5 C 3795.56,3039.73 3794.89,3044.73 3793.5,3049.5C 3793.3,3044.25 3793.97,3039.25 3795.5,3034.5 Z"/></g>
<g><path style="opacity:1" fill="#6f7d84" d="M 1003.5,3046.5 C 1003.48,3053.37 1002.81,3060.04 1001.5,3066.5C 1001.13,3059.59 1001.8,3052.92 1003.5,3046.5 Z"/></g>
<g><path style="opacity:1" fill="#20a188" d="M 2201.5,3068.5 C 2201.24,3070.79 2201.58,3072.96 2202.5,3075C 2200.65,3079.11 2198.98,3083.28 2197.5,3087.5C 2198.1,3080.89 2199.43,3074.56 2201.5,3068.5 Z"/></g>
<g><path style="opacity:1" fill="#1e9881" d="M 2613.5,3067.5 C 2613.67,3071.51 2613.5,3075.51 2613,3079.5C 2612.77,3080.74 2612.27,3081.74 2611.5,3082.5C 2611.93,3077.33 2612.6,3072.33 2613.5,3067.5 Z"/></g>
<g><path style="opacity:1" fill="#0d333a" d="M 4980.5,3089.5 C 4980.29,3091.14 4980.62,3092.64 4981.5,3094C 4979.2,3101.1 4976.53,3107.93 4973.5,3114.5C 4974.45,3105.69 4976.78,3097.36 4980.5,3089.5 Z"/></g>
<g><path style="opacity:1" fill="#1d927d" d="M 2607.5,3106.5 C 2607.77,3111.43 2607.1,3116.1 2605.5,3120.5C 2605.36,3115.59 2606.03,3110.92 2607.5,3106.5 Z"/></g>
<g><path style="opacity:1" fill="#187e6f" d="M 2383.5,3157.5 C 2383.66,3160.52 2383.5,3163.52 2383,3166.5C 2382.8,3168.32 2381.97,3169.65 2380.5,3170.5C 2381.75,3166.11 2382.75,3161.77 2383.5,3157.5 Z"/></g>
<g><path style="opacity:1" fill="#4f5e68" d="M 3052.5,3364.5 C 3051.15,3365.19 3049.98,3366.19 3049,3367.5C 3044.6,3366.53 3040.1,3366.2 3035.5,3366.5C 3041,3365.64 3046.67,3364.97 3052.5,3364.5 Z"/></g>
<g><path style="opacity:1" fill="#919ca1" d="M 1684.5,3370.5 C 1692.72,3370.25 1700.72,3370.91 1708.5,3372.5C 1700.31,3372.38 1692.31,3371.72 1684.5,3370.5 Z"/></g>
<g><path style="opacity:1" fill="#cbd0d3" d="M 1726.5,3373.5 C 2143.17,3373.5 2559.83,3373.5 2976.5,3373.5C 2973.5,3374.17 2970.5,3374.83 2967.5,3375.5C 2555.51,3374.5 2143.51,3374.17 1731.5,3374.5C 1729.59,3374.78 1727.92,3374.45 1726.5,3373.5 Z"/></g>
<g><path style="opacity:1" fill="#4e6067" d="M 1731.5,3374.5 C 2143.51,3374.17 2555.51,3374.5 2967.5,3375.5C 2764.83,3376.17 2562,3376.5 2359,3376.5C 2156.17,3376.33 1953.33,3376.17 1750.5,3376C 1743.99,3375.83 1737.65,3375.33 1731.5,3374.5 Z"/></g>
<g><path style="opacity:1" fill="#22ab8e" d="M 4626.5,3340.5 C 4626.63,3341.24 4626.46,3341.91 4626,3342.5C 4606.58,3362.42 4586.75,3381.75 4566.5,3400.5C 4586.17,3380.17 4606.17,3360.17 4626.5,3340.5 Z"/></g>
<g><path style="opacity:1" fill="#114c4c" d="M 4796.5,3437.5 C 4794.23,3441.44 4791.23,3444.77 4787.5,3447.5C 4789.77,3443.56 4792.77,3440.23 4796.5,3437.5 Z"/></g>
<g><path style="opacity:1" fill="#0f4346" d="M 4751.5,3487.5 C 4742.76,3497.75 4733.42,3507.58 4723.5,3517C 4722.91,3517.46 4722.24,3517.63 4721.5,3517.5C 4731.17,3507.17 4741.17,3497.17 4751.5,3487.5 Z"/></g>
<g><path style="opacity:1" fill="#197c6d" d="M 4200.5,3585.5 C 4197.78,3586.91 4194.78,3587.58 4191.5,3587.5C 4194.22,3586.09 4197.22,3585.42 4200.5,3585.5 Z"/></g>
<g><path style="opacity:1" fill="#092631" d="M 4128.5,3592.5 C 3914.83,3593.17 3701.17,3593.83 3487.5,3594.5C 3487.78,3596.41 3487.45,3598.08 3486.5,3599.5C 3486.5,3597.17 3486.5,3594.83 3486.5,3592.5C 3700.5,3592.5 3914.5,3592.5 4128.5,3592.5 Z"/></g>
<g><path style="opacity:1" fill="#18796c" d="M 4128.5,3592.5 C 4133.5,3592.5 4138.5,3592.5 4143.5,3592.5C 4139.02,3593.33 4134.35,3593.83 4129.5,3594C 3915.5,3594.5 3701.5,3594.67 3487.5,3594.5C 3701.17,3593.83 3914.83,3593.17 4128.5,3592.5 Z"/></g>
<g><path style="opacity:1" fill="#176f64" d="M 3474.5,3668.5 C 3474.59,3671.15 3473.92,3673.49 3472.5,3675.5C 3472.41,3672.85 3473.08,3670.51 3474.5,3668.5 Z"/></g>
<g><path style="opacity:1" fill="#2bdbb0" d="M 3251.5,3707.5 C 3249.51,3709.46 3248.01,3711.8 3247,3714.5C 3239.17,3757.12 3231.67,3799.79 3224.5,3842.5C 3222.16,3848.16 3220.83,3854.16 3220.5,3860.5C 3219.3,3869.18 3217.96,3877.85 3216.5,3886.5C 3214.96,3888.84 3214.29,3891.5 3214.5,3894.5C 3194.69,4001.72 3175.19,4109.05 3156,4216.5C 3153.9,4225.19 3151.73,4233.86 3149.5,4242.5C 3145.64,4267.21 3141.48,4291.88 3137,4316.5C 3135.92,4319.9 3134.76,4323.23 3133.5,4326.5C 3132.7,4334.01 3132.03,4341.68 3131.5,4349.5C 3129.47,4355.96 3127.8,4362.62 3126.5,4369.5C 3125.34,4374.63 3124.67,4379.97 3124.5,4385.5C 3122.3,4397.3 3119.63,4408.97 3116.5,4420.5C 3115.2,4424.94 3114.53,4429.61 3114.5,4434.5C 3114.88,4438.61 3113.88,4442.27 3111.5,4445.5C 2861.16,4446.17 2611.16,4445.5 2361.5,4443.5C 2383.59,4317.9 2406.75,4192.57 2431,4067.5C 2432.45,4050.88 2435.45,4034.55 2440,4018.5C 2443.32,3998.55 2446.32,3978.55 2449,3958.5C 2451.8,3949.97 2453.96,3941.31 2455.5,3932.5C 2457.03,3927.75 2457.7,3922.75 2457.5,3917.5C 2459.79,3909.96 2461.46,3902.3 2462.5,3894.5C 2464.12,3889.08 2464.78,3883.42 2464.5,3877.5C 2467.17,3866.48 2470.01,3855.48 2473,3844.5C 2472.62,3835.14 2473.96,3826.14 2477,3817.5C 2478.41,3809.22 2479.24,3800.89 2479.5,3792.5C 2481.41,3791.82 2483.41,3791.32 2485.5,3791C 2548.83,3790.33 2612.17,3790.33 2675.5,3791C 2676.74,3791.23 2677.74,3791.73 2678.5,3792.5C 2678.5,3793.83 2678.5,3795.17 2678.5,3796.5C 2672.75,3823.16 2667.92,3850.16 2664,3877.5C 2661.97,3889.32 2659.3,3900.99 2656,3912.5C 2655.15,3925.13 2652.82,3937.46 2649,3949.5C 2647.33,3967.51 2644,3985.17 2639,4002.5C 2632.57,4043.76 2625.07,4084.76 2616.5,4125.5C 2614.99,4135.72 2613.33,4146.06 2611.5,4156.5C 2607.58,4168.74 2605.24,4181.41 2604.5,4194.5C 2603.23,4196.91 2602.57,4199.57 2602.5,4202.5C 2602.5,4202.83 2602.5,4203.17 2602.5,4203.5C 2599.55,4215.97 2597.22,4228.64 2595.5,4241.5C 2593.57,4244.14 2593.07,4247.14 2594,4250.5C 2595.01,4252.26 2596.51,4253.43 2598.5,4254C 2612.21,4254.54 2625.88,4255.37 2639.5,4256.5C 2729.03,4255.17 2818.53,4255.17 2908,4256.5C 2920.09,4255.68 2932.26,4255.18 2944.5,4255C 2946,4254.42 2947.33,4253.58 2948.5,4252.5C 2951.24,4246.93 2953.74,4241.26 2956,4235.5C 2963.76,4192.38 2971.93,4149.38 2980.5,4106.5C 2982.96,4102.27 2983.96,4097.61 2983.5,4092.5C 2988.64,4062.45 2994.31,4032.45 3000.5,4002.5C 3002.96,3998.26 3003.96,3993.6 3003.5,3988.5C 3015.34,3925.45 3027.51,3862.45 3040,3799.5C 3038.71,3792.61 3038.21,3785.61 3038.5,3778.5C 3043.66,3776.09 3049,3773.92 3054.5,3772C 3065.94,3771.51 3076.94,3769.18 3087.5,3765C 3098.69,3763.83 3109.35,3760.83 3119.5,3756C 3130.67,3753.66 3141.67,3750.83 3152.5,3747.5C 3157.95,3744.44 3163.62,3741.94 3169.5,3740C 3176.82,3739.45 3183.49,3737.12 3189.5,3733C 3192.53,3732.46 3195.53,3731.79 3198.5,3731C 3210.43,3724.69 3222.77,3719.36 3235.5,3715C 3240.25,3711.12 3245.58,3708.62 3251.5,3707.5 Z"/></g>
<g><path style="opacity:1" fill="#081f2c" d="M 3038.5,3778.5 C 3038.21,3785.61 3038.71,3792.61 3040,3799.5C 3027.51,3862.45 3015.34,3925.45 3003.5,3988.5C 3002.51,3993.05 3001.51,3997.72 3000.5,4002.5C 2994.31,4032.45 2988.64,4062.45 2983.5,4092.5C 2981.87,4096.91 2980.87,4101.58 2980.5,4106.5C 2971.93,4149.38 2963.76,4192.38 2956,4235.5C 2953.74,4241.26 2951.24,4246.93 2948.5,4252.5C 2947.33,4253.58 2946,4254.42 2944.5,4255C 2932.26,4255.18 2920.09,4255.68 2908,4256.5C 2818.53,4255.17 2729.03,4255.17 2639.5,4256.5C 2625.88,4255.37 2612.21,4254.54 2598.5,4254C 2596.51,4253.43 2595.01,4252.26 2594,4250.5C 2593.07,4247.14 2593.57,4244.14 2595.5,4241.5C 2596,4237.93 2597.34,4234.59 2599.5,4231.5C 2598.57,4230.23 2598.41,4228.9 2599,4227.5C 2599.33,4227.83 2599.67,4228.17 2600,4228.5C 2601.02,4224.96 2601.18,4221.46 2600.5,4218C 2600.82,4215.2 2601.82,4212.7 2603.5,4210.5C 2602.63,4208.25 2602.29,4205.92 2602.5,4203.5C 2602.5,4203.17 2602.5,4202.83 2602.5,4202.5C 2604.04,4200.16 2604.71,4197.5 2604.5,4194.5C 2605.24,4181.41 2607.58,4168.74 2611.5,4156.5C 2614.2,4153.07 2615.7,4149.07 2616,4144.5C 2616.5,4138.18 2616.67,4131.84 2616.5,4125.5C 2625.07,4084.76 2632.57,4043.76 2639,4002.5C 2644,3985.17 2647.33,3967.51 2649,3949.5C 2652.82,3937.46 2655.15,3925.13 2656,3912.5C 2659.3,3900.99 2661.97,3889.32 2664,3877.5C 2667.92,3850.16 2672.75,3823.16 2678.5,3796.5C 2679.4,3795.79 2679.74,3794.79 2679.5,3793.5C 2754,3793.83 2828.34,3793.5 2902.5,3792.5C 2947.82,3787.86 2993.15,3783.2 3038.5,3778.5 Z"/></g>
<g><path style="opacity:1" fill="#b8bfc1" d="M 2045.5,3792.5 C 2052.5,3791.17 2059.5,3791.17 2066.5,3792.5C 2065.83,3792.83 2065.17,3793.17 2064.5,3793.5C 2058.26,3792.54 2051.92,3792.21 2045.5,3792.5 Z"/></g>
<g><path style="opacity:1" fill="#748288" d="M 2678.5,3792.5 C 2753.17,3792.5 2827.83,3792.5 2902.5,3792.5C 2828.34,3793.5 2754,3793.83 2679.5,3793.5C 2679.74,3794.79 2679.4,3795.79 2678.5,3796.5C 2678.5,3795.17 2678.5,3793.83 2678.5,3792.5 Z"/></g>
<g><path style="opacity:1" fill="#176d63" d="M 3224.5,3842.5 C 3223.62,3848.73 3222.29,3854.73 3220.5,3860.5C 3220.83,3854.16 3222.16,3848.16 3224.5,3842.5 Z"/></g>
<g><path style="opacity:1" fill="#24b394" d="M 2059.5,3846.5 C 2059.31,3852.88 2058.65,3859.21 2057.5,3865.5C 2056.82,3865.86 2056.15,3866.2 2055.5,3866.5C 2056.47,3859.64 2057.81,3852.97 2059.5,3846.5 Z"/></g>
<g><path style="opacity:1" fill="#187468" d="M 2464.5,3877.5 C 2464.78,3883.42 2464.12,3889.08 2462.5,3894.5C 2462.45,3888.61 2463.12,3882.94 2464.5,3877.5 Z"/></g>
<g><path style="opacity:1" fill="#155f59" d="M 3216.5,3886.5 C 3216.43,3889.43 3215.77,3892.09 3214.5,3894.5C 3214.29,3891.5 3214.96,3888.84 3216.5,3886.5 Z"/></g>
<g><path style="opacity:1" fill="#1e9881" d="M 2457.5,3917.5 C 2457.7,3922.75 2457.03,3927.75 2455.5,3932.5C 2455.44,3927.27 2456.11,3922.27 2457.5,3917.5 Z"/></g>
<g><path style="opacity:1" fill="#166c62" d="M 2042.5,3936.5 C 2042.71,3939.5 2042.04,3942.16 2040.5,3944.5C 2040.57,3941.57 2041.23,3938.91 2042.5,3936.5 Z"/></g>
<g><path style="opacity:1" fill="#15625b" d="M 2040.5,3946.5 C 2040.71,3949.5 2040.04,3952.16 2038.5,3954.5C 2038.57,3951.57 2039.23,3948.91 2040.5,3946.5 Z"/></g>
<g><path style="opacity:1" fill="#1f9881" d="M 3003.5,3988.5 C 3003.96,3993.6 3002.96,3998.26 3000.5,4002.5C 3001.51,3997.72 3002.51,3993.05 3003.5,3988.5 Z"/></g>
<g><path style="opacity:1" fill="#114d4d" d="M 2214.5,4052.5 C 2214.76,4058.19 2213.76,4063.53 2211.5,4068.5C 2211.96,4062.94 2212.96,4057.61 2214.5,4052.5 Z"/></g>
<g><path style="opacity:1" fill="#135452" d="M 2211.5,4068.5 C 2211.87,4073.91 2210.87,4078.91 2208.5,4083.5C 2208.98,4078.27 2209.98,4073.27 2211.5,4068.5 Z"/></g>
<g><path style="opacity:1" fill="#1e957f" d="M 2983.5,4092.5 C 2983.96,4097.61 2982.96,4102.27 2980.5,4106.5C 2980.87,4101.58 2981.87,4096.91 2983.5,4092.5 Z"/></g>
<g><path style="opacity:1" fill="#0d353b" d="M 2616.5,4125.5 C 2616.67,4131.84 2616.5,4138.18 2616,4144.5C 2615.7,4149.07 2614.2,4153.07 2611.5,4156.5C 2613.33,4146.06 2614.99,4135.72 2616.5,4125.5 Z"/></g>
<g><path style="opacity:1" fill="#103e42" d="M 2200.5,4127.5 C 2200.57,4132.59 2199.9,4137.59 2198.5,4142.5C 2199.63,4147.06 2198.63,4151.06 2195.5,4154.5C 2196.81,4145.31 2198.47,4136.31 2200.5,4127.5 Z"/></g>
<g><path style="opacity:1" fill="#1e927d" d="M 3385.5,4151.5 C 3385.87,4156.91 3384.87,4161.91 3382.5,4166.5C 3382.98,4161.27 3383.98,4156.27 3385.5,4151.5 Z"/></g>
<g><path style="opacity:1" fill="#145754" d="M 2192.5,4170.5 C 2192.76,4176.19 2191.76,4181.53 2189.5,4186.5C 2189.96,4180.94 2190.96,4175.61 2192.5,4170.5 Z"/></g>
<g><path style="opacity:1" fill="#1d8b78" d="M 3380.5,4178.5 C 3380.87,4183.91 3379.87,4188.91 3377.5,4193.5C 3377.98,4188.27 3378.98,4183.27 3380.5,4178.5 Z"/></g>
<g><path style="opacity:1" fill="#15615a" d="M 2604.5,4194.5 C 2604.71,4197.5 2604.04,4200.16 2602.5,4202.5C 2602.57,4199.57 2603.23,4196.91 2604.5,4194.5 Z"/></g>
<g><path style="opacity:1" fill="#0e393e" d="M 2602.5,4203.5 C 2602.29,4205.92 2602.63,4208.25 2603.5,4210.5C 2601.82,4212.7 2600.82,4215.2 2600.5,4218C 2601.18,4221.46 2601.02,4224.96 2600,4228.5C 2599.67,4228.17 2599.33,4227.83 2599,4227.5C 2598.41,4228.9 2598.57,4230.23 2599.5,4231.5C 2597.34,4234.59 2596,4237.93 2595.5,4241.5C 2597.22,4228.64 2599.55,4215.97 2602.5,4203.5 Z"/></g>
<g><path style="opacity:1" fill="#0f373e" d="M 2183.5,4222.5 C 2183.45,4225.48 2183.45,4228.64 2183.5,4232C 2182.87,4234.14 2182.37,4236.3 2182,4238.5C 2180.98,4237.29 2180.48,4237.63 2180.5,4239.5C 2181.36,4242.82 2181.19,4246.15 2180,4249.5C 2179.67,4249.17 2179.33,4248.83 2179,4248.5C 2178.72,4249.42 2178.22,4250.08 2177.5,4250.5C 2178.66,4240.86 2180.66,4231.53 2183.5,4222.5 Z"/></g>
<g><path style="opacity:1" fill="#1c8675" d="M 3369.5,4238.5 C 3368.97,4247.83 3367.3,4256.83 3364.5,4265.5C 3365.43,4256.24 3367.1,4247.24 3369.5,4238.5 Z"/></g>
<g><path style="opacity:1" fill="#187468" d="M 2177.5,4252.5 C 2177.71,4255.5 2177.04,4258.16 2175.5,4260.5C 2175.57,4257.57 2176.23,4254.91 2177.5,4252.5 Z"/></g>
<g><path style="opacity:1" fill="#1a8070" d="M 3356.5,4312.5 C 3356.26,4316.48 3355.26,4320.15 3353.5,4323.5C 3353.74,4319.52 3354.74,4315.85 3356.5,4312.5 Z"/></g>
<g><path style="opacity:1" fill="#125451" d="M 3133.5,4326.5 C 3133.67,4333.17 3133.5,4339.84 3133,4346.5C 3132.77,4347.74 3132.27,4348.74 3131.5,4349.5C 3132.03,4341.68 3132.7,4334.01 3133.5,4326.5 Z"/></g>
<g><path style="opacity:1" fill="#15645d" d="M 3126.5,4369.5 C 3126.84,4375.1 3126.18,4380.43 3124.5,4385.5C 3124.67,4379.97 3125.34,4374.63 3126.5,4369.5 Z"/></g>
<g><path style="opacity:1" fill="#186f65" d="M 3345.5,4371.5 C 3345.59,4374.15 3344.92,4376.49 3343.5,4378.5C 3343.41,4375.85 3344.08,4373.51 3345.5,4371.5 Z"/></g>
<g><path style="opacity:1" fill="#20a188" d="M 1958.5,4376.5 C 1958.96,4381.61 1957.96,4386.27 1955.5,4390.5C 1955.87,4385.58 1956.87,4380.91 1958.5,4376.5 Z"/></g>
<g><path style="opacity:1" fill="#177166" d="M 3116.5,4420.5 C 3116.64,4425.41 3115.97,4430.08 3114.5,4434.5C 3114.53,4429.61 3115.2,4424.94 3116.5,4420.5 Z"/></g>
<g><path style="opacity:1" fill="#209f86" d="M 1949.5,4423.5 C 1949.26,4430.08 1948.26,4436.41 1946.5,4442.5C 1946.33,4435.85 1947.33,4429.52 1949.5,4423.5 Z"/></g>
<g><path style="opacity:1" fill="#1b8b78" d="M 2361.5,4443.5 C 2611.16,4445.5 2861.16,4446.17 3111.5,4445.5C 2861.33,4446.5 2611,4446.83 2360.5,4446.5C 2360.26,4445.21 2360.6,4444.21 2361.5,4443.5 Z"/></g>
<g><path style="opacity:1" fill="#209f86" d="M 1926.5,4547.5 C 1925.48,4550.2 1925.48,4552.87 1926.5,4555.5C 1925.69,4556.22 1925.02,4557.05 1924.5,4558C 1923.96,4561 1923.3,4563.83 1922.5,4566.5C 1922.44,4559.75 1923.78,4553.41 1926.5,4547.5 Z"/></g>
<g><path style="opacity:1" fill="#15635c" d="M 3504.5,4566.5 C 3503.62,4572.73 3502.29,4578.73 3500.5,4584.5C 3500.83,4578.16 3502.16,4572.16 3504.5,4566.5 Z"/></g>
<g><path style="opacity:1" fill="#1b8574" d="M 1918.5,4588.5 C 1917.26,4594.58 1916.26,4600.58 1915.5,4606.5C 1915.33,4602.49 1915.5,4598.49 1916,4594.5C 1916.24,4592.15 1917.07,4590.15 1918.5,4588.5 Z"/></g>
<g><path style="opacity:1" fill="#124d4c" d="M 1889.5,4743.5 C 1889.88,4750.31 1888.54,4756.64 1885.5,4762.5C 1885.76,4755.81 1887.09,4749.47 1889.5,4743.5 Z"/></g>
<g><path style="opacity:1" fill="#177165" d="M 1881.5,4788.5 C 1881.5,4792.87 1880.5,4796.87 1878.5,4800.5C 1879.01,4796.26 1880.01,4792.26 1881.5,4788.5 Z"/></g>
</svg>
