<?xml version="1.0" encoding="utf-8"?>
<!-- Generator: Adobe Illustrator 22.1.0, SVG Export Plug-In . SVG Version: 6.00 Build 0)  -->
<svg version="1.1" id="Layer_2_1_" xmlns="http://www.w3.org/2000/svg" xmlns:xlink="http://www.w3.org/1999/xlink" x="0px" y="0px"
	 viewBox="0 0 7128 2890" style="enable-background:new 0 0 7128 2890;" xml:space="preserve">
<style type="text/css">
	.st0{fill:#FFFFFF;}
</style>
<g>
	<path class="st0" d="M2312.6,522.8h103c52.7,0,82.8,37.1,82.8,80.4c0,43.3-30.5,80.4-82.8,80.4h-79.5v114.2h-23.5V522.8z
		 M2413.1,544.3h-77v117.8h77c36.3,0,60.6-24.3,60.6-58.9C2473.7,568.6,2449.4,544.3,2413.1,544.3z"/>
	<path class="st0" d="M2534.5,698c0-58.1,37.5-104.2,95.6-104.2c58.9,0,96,46.1,96,104.2c0,58.1-37.1,104.7-96,104.7
		C2572,802.6,2534.5,756.1,2534.5,698z M2703,698c0-44.1-25.9-84.9-72.9-84.9c-46.1,0-72.5,40.8-72.5,84.9
		c0,44.5,26.4,85.3,72.5,85.3C2677.1,783.3,2703,742.5,2703,698z"/>
	<path class="st0" d="M2900.2,627.5l-56.1,170.2h-20.6l-64.7-199h23.1l52.7,168.9l56-168.9h18.5l56.1,168.9l52.7-168.9h23.1
		l-64.7,199h-20.6L2900.2,627.5z"/>
	<path class="st0" d="M3169.9,593.7c60.6,0,94,48.2,94,105.5v5.8h-166.5c2.1,43.3,30.9,79.1,77.9,79.1c25.2,0,48.2-9.5,65.1-27.6
		l11.1,14c-19.8,20.6-44.9,32.2-77.9,32.2c-58.1,0-99.7-43.3-99.7-104.7C3073.9,640.3,3114.7,593.7,3169.9,593.7z M3097.4,688.1
		H3242c-0.4-33.8-22.7-75.8-72.5-75.8C3122.5,612.3,3099,653.4,3097.4,688.1z"/>
	<path class="st0" d="M3323,598.7h21.5v34.2c16.9-22.3,39.6-38.3,67.1-38.3v23.5c-3.7-0.8-6.5-0.8-10.7-0.8
		c-20.2,0-47.4,18.1-56.4,35.4v145H3323V598.7z"/>
	<path class="st0" d="M3542.1,593.7c60.6,0,94,48.2,94,105.5v5.8h-166.5c2.1,43.3,30.9,79.1,77.9,79.1c25.2,0,48.2-9.5,65.1-27.6
		l11.1,14c-19.8,20.6-44.9,32.2-77.9,32.2c-58.1,0-99.7-43.3-99.7-104.7C3446.1,640.3,3486.9,593.7,3542.1,593.7z M3469.6,688.1
		h144.6c-0.4-33.8-22.7-75.8-72.5-75.8C3494.7,612.3,3471.2,653.4,3469.6,688.1z"/>
	<path class="st0" d="M3841.9,766c-14,20.6-39.6,36.7-69.2,36.7c-52.7,0-89-40.4-89-104.3c0-63,36.2-104.6,89-104.6
		c28.4,0,53.1,14.4,69.2,37.1v-108h21.8v274.9h-21.8V766z M3841.9,649.3c-11.5-19.3-37.5-36.2-65.5-36.2
		c-44.1,0-69.6,37.1-69.6,85.3c0,48.2,25.5,84.9,69.6,84.9c28,0,54-16.5,65.5-35.4V649.3z"/>
	<path class="st0" d="M4045.1,522.8h21.5v108c16.1-22.7,41.2-37.1,69.2-37.1c53.1,0,89,41.6,89,104.6c0,63.9-36.3,104.3-89,104.3
		c-29.6,0-55.2-16.1-69.2-36.7v31.7h-21.5V522.8z M4132.1,783.3c44.5,0,69.6-36.7,69.6-84.9c0-48.2-25.1-85.3-69.6-85.3
		c-27.6,0-54,17.3-65.5,36.2v98.5C4078.1,766.8,4104.5,783.3,4132.1,783.3z"/>
	<path class="st0" d="M4292.2,859.1c13.2,0,22.3-5.4,30.1-24.3l15.7-35.4l-84.1-200.7h23.9l72.5,173.9l71.7-173.9h24.3l-103,242.7
		c-10.7,25.1-27.6,37.1-51.1,37.1c-6.6,0-15.7-1.2-21-2.9l3.7-19.8C4279.5,857.8,4287.3,859.1,4292.2,859.1z"/>
	<path class="st0" d="M2375.4,1549.2c0,237.5,168.7,359.9,344.8,359.9c86.2,0,226.7-29.2,303.6-84v100.5
		c-76.8,45.7-213.6,73.1-311.1,73.1c-224.9,0-453.5-151.6-453.5-449.4c0-279.5,194.9-433,425.4-433c224.9,0,404.8,146.2,404.8,433
		H2375.4z M2382.9,1463.4h582.8c-30-164.4-146.2-257.6-288.6-257.6C2536.5,1205.8,2412.8,1298.9,2382.9,1463.4z"/>
	<path class="st0" d="M3321.6,1556.5c0-283.2,230.5-440.3,461-440.3c230.5,0,455.3,157.1,455.3,438.5c0,285-228.6,443.9-459.1,443.9
		C3550.2,1998.6,3321.6,1839.7,3321.6,1556.5z M3778.8,1909.1c170.5,0,342.9-126.1,342.9-352.6s-170.5-350.8-341-350.8
		c-172.4,0-342.9,126.1-342.9,350.8C3437.8,1783.1,3608.3,1909.1,3778.8,1909.1z"/>
	<path class="st0" d="M4706.6,1563.8c-129.3-63.9-243.6-129.7-226.7-270.4c13.1-107.8,91.8-177.2,254.8-177.2
		c75,0,172.4,14.6,249.2,62.1l-73.2,55.6c-52.1-22.2-101.1-26.9-142.2-28.2c-89.9-1.8-161.1,16.4-172.4,93.2
		c-15,102.3,103.1,146.2,202.4,193.7c153.7,73.1,238,127.9,238,261.3c0,138.9-93.7,244.8-303.6,244.8
		c-121.8,0-219.2-36.5-284.8-76.7l73-56c62.2,29.5,130.5,43.2,196.9,43.2c157.4,0,209.9-78.6,209.9-155.3
		C4927.7,1664.3,4856.5,1636.9,4706.6,1563.8z"/>
	<path class="st0" d="M5570.8,1980.4h-112.4v-760h-179.9v-85.9h292.3V1980.4z M5511,754c45,0,82.5,38.4,82.5,80.4
		c0,43.8-37.5,82.2-82.5,82.2c-45,0-82.4-38.4-82.4-82.2C5428.5,792.3,5466,754,5511,754z"/>
	<path class="st0" d="M5886.9,1556.5c0-283.2,230.5-440.3,461-440.3s455.3,157.1,455.3,438.5c0,285-228.6,443.9-459.1,443.9
		C6115.5,1998.6,5886.9,1839.7,5886.9,1556.5z M6344.1,1909.1c170.5,0,342.9-126.1,342.9-352.6s-170.5-350.8-341-350.8
		c-172.4,0-342.9,126.1-342.9,350.8C6003.1,1783.1,6173.6,1909.1,6344.1,1909.1z"/>
	<path class="st0" d="M1384.9,1114.7L947.2,517.8l-437.7,596.9l-184.8,883.8l622.5,373.8l622.5-373.8L1384.9,1114.7z M425.4,1954.5
		l140.4-671.7l317.2,946.5L425.4,1954.5z M609.2,1130.2l338-461l338,461l-338,1008.5L609.2,1130.2z M1328.5,1282.8l140.4,671.7
		l-457.7,274.8L1328.5,1282.8z"/>
</g>
</svg>
